<svg xmlns="http://www.w3.org/2000/svg" viewBox="0 0 233 68" enable-background="new 0 0 233 68"><path fill="#FDBD10" d="M34.1.3c-18.6 0-33.7 15.1-33.7 33.7s15.1 33.7 33.7 33.7 33.8-15.1 33.8-33.7-15.1-33.7-33.8-33.7"/><path fill="#231F20" d="M34.1 53.7c-1.3 0-2.3 1-2.3 2.3 0 1.3 1 2.3 2.3 2.3 1.3 0 2.3-1 2.3-2.3 0-1.2-1-2.3-2.3-2.3M37.6 56.1c0 .5-.1 1-.3 1.4l12-1.4-12-1.4c.2.4.3.9.3 1.4"/><path fill="#231F20" d="M18.9 56.1l12.1 1.4c-.2-.4-.3-.9-.3-1.4 0-.5.1-1 .3-1.5l-12.1 1.5zM34 13c1.1 0 1.9-.9 1.9-1.9 0-1.1-.9-1.9-1.9-1.9-1.1 0-1.9.9-1.9 1.9-.1 1.1.8 1.9 1.9 1.9M30.9 11.1c0-.4.1-.8.2-1.1l-8.2 1.1 8.2 1.1c-.1-.3-.2-.7-.2-1.1"/><path fill="#231F20" d="M45 11.1l-8.2-1.1c.1.3.2.7.2 1.1 0 .4-.1.8-.2 1.2l8.2-1.2zM32.4 26.1v-.2s-.6-.7-3-.7-2.9.8-2.9.8v.2s.5.1.7.5c.3.6.4 3.1.4 3.1l-.2 20s0 .2.1.2c.1.1.6.2 2 .2 1.5 0 1.9-.2 2-.3.1-.1.1-.2.1-.2l-.2-20s-.1-2.1.4-3c.2-.6.6-.6.6-.6M40.9 49.9c.1-.1.1-.2.1-.2l-.2-20s.1-2.4.4-3.1c.2-.5.7-.5.7-.5v-.2s-.6-.8-2.9-.8c-2.4 0-3 .7-3 .7v.2s.4.1.6.6c.4.9.4 3 .4 3l-.2 20s0 .2.1.2c.1.1.6.3 2 .3 1.4.1 1.9-.1 2-.2"/><path fill="#231F20" d="M34.2 1.6c-17.9 0-32.3 14.5-32.3 32.4s14.4 32.4 32.3 32.4 32.2-14.5 32.2-32.4-14.4-32.4-32.2-32.4m0 3.6c9 0 17 4.1 22.2 10.6h-12c-.1 0-.1 0-.1.1v1.3h-20.2v-1.3s0-.1-.1-.1h-12c5.2-6.5 13.2-10.6 22.2-10.6m20 40.2h-3.2l-1.5-21.2h1.9l2.8 21.2zm-35.3-21.2l-1.5 21.2h-3.2l2.8-21.2h1.9zm-13.4 9.8c0-6.6 2.2-12.7 6-17.6v.2s.8 1 1.2 1.6c.7 1.1.4 3.2.4 3.2l-3.8 27.1c-2.4-4.3-3.8-9.2-3.8-14.5m28.7 28.9c-9.4 0-17.8-4.6-23-11.6h9.7c.8 0 .8-1.2.8-1.2l1.9-27.2h21.4l1.9 27.2s-.2 1.2.8 1.2h9.7c-5.4 7-13.8 11.6-23.2 11.6m21.1-41.5s-.4-2.1.5-3.3c.4-.6 1.1-1.4 1.1-1.4v-.2c3.7 4.9 6 11 6 17.6 0 5.3-1.4 10.2-3.9 14.5l-3.7-27.2z"/><path fill="#FDBD10" d="M113.1 6.6l-13 39.3-12.3-39.3h-16.6l19.2 54.2h17.9l19.8-54.2zM152.4 51.4c-11.6 0-11.7-13.7-11.7-17 0-9.9 2.8-18.3 11.9-18.3 4.3 0 8.1 2 8.8 7.5h15.5c-.1-2-.1-6.9-4.5-11.6-4.3-4.5-11-6.6-19.8-6.6-7.9 0-15 1.7-20.6 8-5.1 5.8-6.8 13.2-6.8 20.7 0 5.6 1.1 14.3 7 20.6 6 6.3 15.3 7.2 20.6 7.2 7.1 0 24.3-1.4 24.4-18.4h-15.6c-.5 2.1-1.3 7.9-9.2 7.9"/><path fill="#FDBD10" d="M218 6.6v31.7c0 5.4-1.3 13.1-10.8 13.1-3.7 0-7.2-1.4-9.2-4.4-1.5-2.3-1.7-5.3-1.7-8.2v-32.2h-15.3l-.1 30.9c0 8.9.1 24.8 25.7 24.8 6.8 0 16.5-1.3 21.8-7.7 3.4-4 4.2-10.5 4.2-16.5v-31.5h-14.6z"/></svg>