<?xml version="1.0" encoding="utf-8"?>
<!-- Generator: Adobe Illustrator 18.0.0, SVG Export Plug-In . SVG Version: 6.00 Build 0)  -->
<!DOCTYPE svg PUBLIC "-//W3C//DTD SVG 1.1//EN" "http://www.w3.org/Graphics/SVG/1.1/DTD/svg11.dtd">
<svg version="1.1" id="Layer_1" xmlns="http://www.w3.org/2000/svg" xmlns:xlink="http://www.w3.org/1999/xlink" x="0px" y="0px"
	 viewBox="0 0 180.7 148.8" enable-background="new 0 0 180.7 148.8" xml:space="preserve">
<g>
	<polygon fill="#FEBE10" points="0,86.5 18.6,86.5 32.4,130.5 46.9,86.5 63.7,86.5 41.6,147.2 21.5,147.2 	"/>
	<path fill="#FEBE10" d="M100.9,105.6c-0.8-6.1-5-8.4-9.8-8.4c-10.2,0-13.3,9.3-13.3,20.4c0,3.7,0.1,19,13.1,19
		c8.9,0,9.8-6.5,10.2-8.8h17.5c-0.1,19-19.4,20.6-27.3,20.6c-5.9,0-16.3-1-23-8.1c-6.6-7.1-7.8-16.7-7.8-23c0-8.3,1.9-16.7,7.7-23.1
		c6.2-7.1,14.2-8.9,23-8.9c9.8,0,17.3,2.4,22.1,7.4c4.9,5.2,5,10.7,5,13H100.9z"/>
	<path fill="#FEBE10" d="M139.9,86.5v36.1c0,3.3,0.3,6.6,1.9,9.2c2.3,3.4,6.2,5,10.3,5c10.7,0,12.1-8.7,12.1-14.7V86.5h16.4v35.2
		c0,6.7-0.9,14-4.7,18.5c-5.9,7.2-16.7,8.7-24.4,8.7c-28.7,0-28.8-17.8-28.8-27.8l0.1-34.6H139.9z"/>
	<path fill="#FEBE10" d="M128.2,37.9c0,20.9-17,37.9-37.9,37.9c-20.9,0-37.9-17-37.9-37.9C52.4,17,69.4,0,90.3,0
		C111.2,0,128.2,17,128.2,37.9"/>
	<path d="M90.3,65.3c-15.2,0-27.4-12.3-27.4-27.4c0-15.2,12.3-27.4,27.4-27.4c15.2,0,27.4,12.3,27.4,27.4
		C117.7,53,105.5,65.3,90.3,65.3 M90.3,1.4c-20.1,0-36.5,16.3-36.5,36.5c0,20.1,16.3,36.5,36.5,36.5s36.5-16.3,36.5-36.5
		C126.8,17.7,110.4,1.4,90.3,1.4"/>
	<path fill="#FFFFFF" d="M71.2,65.1c-0.2,0.1-0.3,0.2-0.4,0.3c-0.1,0.1-0.1,0.2-0.1,0.3c0,0.1,0.2,0.3,0.3,0.5
		c0.1,0.1,0.1,0.2,0,0.2c-0.1,0.1-0.1,0.1-0.2,0c-0.2-0.1-0.4-0.3-0.6-0.4c-0.2-0.1-0.5-0.2-0.7-0.3c-0.1,0-0.1-0.1-0.1-0.2
		c0.1-0.1,0.2,0,0.4-0.1c0.2,0,0.4-0.2,0.8-0.4l3.3-2.2c0.4-0.2,0.4-0.2,0.5-0.2c0.1,0.1,0.1,0.2,0.1,0.4L74,67.5
		c-0.1,0.4,0.1,0.5,0.2,0.7c0.1,0.1,0.1,0.1,0.1,0.2c-0.1,0.1-0.1,0.1-0.2,0c-0.3-0.2-0.5-0.4-0.8-0.6c-0.3-0.2-0.6-0.3-0.9-0.5
		c0,0-0.2-0.1-0.1-0.2c0.1-0.1,0.2-0.1,0.3,0c0.2,0.1,0.3,0,0.4-0.2c0.1-0.1,0.1-0.3,0.1-0.4l0.4-2.5c0-0.3,0.1-0.3,0-0.4
		c0,0-0.1,0-0.2,0.1L71.2,65.1z"/>
	<path fill="#FFFFFF" d="M70.4,60.7c0.3-0.3,0.1-0.7,0-0.8c-0.1-0.1-0.1-0.1,0-0.2c0.1-0.1,0.2,0,0.4,0.2c0.2,0.1,0.4,0.4,0.6,0.6
		c0.2,0.2,0.5,0.3,0.7,0.5c0.1,0.1,0.2,0.2,0.1,0.3c-0.1,0.1-0.2,0-0.3,0c-0.3-0.1-0.5,0.1-0.6,0.2l-2.1,2.5c-0.3,0.3-0.2,0.6,0,0.8
		c0.1,0.1,0.1,0.1,0,0.2c-0.1,0.1-0.2,0-0.4-0.2c-0.2-0.2-0.4-0.4-0.6-0.6c-0.2-0.2-0.5-0.3-0.7-0.5c-0.1-0.1-0.2-0.1-0.1-0.2
		c0.1-0.1,0.2,0,0.3,0c0.3,0.1,0.5-0.1,0.6-0.3L70.4,60.7z"/>
	<path fill="#FFFFFF" d="M66.6,60c0.1-0.1,0.2-0.2-0.1-0.5c-0.4-0.5-0.8-0.5-1.4,0c-0.4,0.4-0.6,0.9-0.1,1.4
		c0.3,0.3,0.4,0.3,0.6,0.1L66.6,60z M66.5,61.6c-0.3,0.3-0.3,0.6-0.1,0.8c0.1,0.1,0.1,0.2,0,0.2c-0.1,0-0.1,0.1-0.2-0.1
		c-0.1-0.1-0.2-0.3-0.6-0.7c-0.3-0.3-0.7-0.7-0.9-0.9c-0.7-0.7-1.2-1.6-0.3-2.4c0.4-0.3,0.7-0.3,1.1-0.2c0.2,0.1,0.3,0.2,0.4,0.1
		c0.1-0.1,0.6-1.7,0.7-2.2c0-0.1,0-0.2,0-0.2c-0.1-0.1-0.1-0.1-0.2-0.2c-0.1-0.1,0-0.1,0-0.2c0.2-0.2,0.8,0.4,1,0.6
		c0.1,0.2,0.2,0.4,0.1,0.8l-0.6,1.7c-0.1,0.2-0.1,0.5,0,0.7c0.1,0.1,0.2,0.2,0.3,0.1l0.9-0.8c0.4-0.4,0.4-0.7,0.2-0.9
		c-0.1-0.1-0.1-0.2,0-0.2c0.1-0.1,0.1,0,0.4,0.2c0.2,0.2,0.3,0.5,0.5,0.7c0.2,0.2,0.4,0.4,0.6,0.6c0.1,0.1,0.1,0.2,0.1,0.2
		c-0.1,0.1-0.2,0-0.3,0c-0.3-0.2-0.5,0-0.7,0.1L66.5,61.6z"/>
	<path fill="#FFFFFF" d="M63.2,53.1c-0.4,0.2-0.3,0.5-0.2,0.8c0,0.1,0,0.1-0.1,0.2c-0.1,0.1-0.2,0-0.3-0.3c-0.2-0.2-0.3-0.5-0.4-0.8
		c-0.2-0.3-0.3-0.5-0.5-0.7c-0.1-0.1-0.1-0.2,0-0.2c0.1-0.1,0.2,0,0.3,0.1c0.2,0.2,0.5,0.1,0.7,0l0.9-0.6c0.1-0.1,1.2,0.8,1.7,1.6
		c0.8,1.3,0.5,2.7-0.7,3.5c-1.3,0.8-3,0.4-3.7-0.8c-0.5-0.8-0.5-1.5-0.5-1.6c-0.1-0.2-0.3,0-0.4-0.2c0,0,0-0.1,0-0.1l0.8-0.6
		c0.1-0.1,0.2-0.2,0.3-0.2c0.1-0.1,0.2-0.1,0.2,0c0,0.1-0.1,0.2-0.1,0.3c-0.6,1.1-0.4,1.6-0.2,2.1c0.6,1,1.6,0.9,2.6,0.3
		c0.9-0.6,1.9-1.5,1.3-2.6c-0.3-0.6-0.7-0.7-1.3-0.3L63.2,53.1z"/>
	<path fill="#FFFFFF" d="M62.2,49.3c0.4-0.2,0.4-0.6,0.3-0.8c0-0.1,0-0.2,0.1-0.2c0.1,0,0.2,0.1,0.3,0.3c0.1,0.2,0.2,0.5,0.3,0.8
		c0.1,0.3,0.3,0.5,0.4,0.8c0.1,0.1,0.1,0.2,0,0.3c-0.1,0-0.2-0.1-0.2-0.1c-0.2-0.2-0.5-0.2-0.7-0.1l-3,1.3c-0.4,0.2-0.4,0.5-0.3,0.8
		c0,0.1,0,0.2-0.1,0.2c-0.1,0-0.2-0.1-0.3-0.3c-0.1-0.3-0.2-0.6-0.3-0.8c-0.1-0.3-0.3-0.5-0.4-0.8c0-0.1-0.1-0.2,0-0.2
		c0.1,0,0.2,0.1,0.3,0.2c0.2,0.2,0.5,0.1,0.7,0L62.2,49.3z"/>
	<path fill="#FFFFFF" d="M58.7,47.3c-0.1,0.2-0.2,0.4-0.2,0.4c0,0,0,0.1,0.2,0l2.5-0.6c0.3-0.1,0.6-0.3,0.6-0.6
		c0-0.2-0.1-0.4,0.1-0.5c0.1,0,0.2,0.1,0.2,0.3c0.1,0.2,0.1,0.5,0.1,0.8c0.1,0.2,0.2,0.5,0.2,0.7c0,0.1,0,0.1-0.1,0.2
		c-0.1,0-0.2,0-0.3-0.1c-0.3-0.3-0.5-0.4-0.9-0.3l-2.7,0.7c-0.3,0.1-0.6,0.3-0.7,0.6c-0.1,0.3-0.1,0.4-0.2,0.4c-0.1,0-0.1,0-0.1-0.1
		c-0.1-0.2-0.1-0.4-0.1-0.6c-0.1-0.2-0.1-0.4-0.2-0.6c0-0.2,0-0.2,0-0.3l2.2-3.5c0.1-0.1,0.1-0.2,0.1-0.3c0-0.1-0.1,0-0.2,0
		l-1.6,0.4c-0.5,0.1-0.9,0.3-0.9,0.7c0,0.2,0,0.4-0.1,0.4c-0.1,0-0.1-0.1-0.2-0.2c-0.1-0.2-0.1-0.5-0.1-0.8
		c-0.1-0.3-0.2-0.5-0.2-0.7c0-0.1,0-0.1,0.1-0.2c0.1,0,0.2,0,0.3,0.1c0.3,0.3,0.5,0.4,0.9,0.3l3.4-0.9c0.3-0.1,0.4-0.1,0.4,0
		c0,0.1-0.1,0.3-0.2,0.5L58.7,47.3z"/>
	<path fill="#FFFFFF" d="M60.1,40.3c0.5,0,0.5-0.5,0.5-0.6c0-0.1,0-0.2,0.2-0.2c0.1,0,0.1,0.2,0.2,0.4c0,0.2,0,0.5,0,0.8
		c0,0.3,0.1,0.6,0.1,0.9c0,0.1,0,0.2-0.1,0.3c-0.1,0-0.2-0.1-0.2-0.2c-0.1-0.3-0.4-0.3-0.6-0.3l-3.3,0.3c-0.5,0-0.6,0.3-0.5,0.6
		c0,0.1,0,0.2-0.2,0.2c-0.1,0-0.1-0.2-0.2-0.4c0-0.3,0-0.6,0-0.9c0-0.3-0.1-0.6-0.1-0.9c0-0.1,0-0.2,0.1-0.2c0.1,0,0.2,0.2,0.2,0.3
		c0.1,0.3,0.4,0.3,0.6,0.2L60.1,40.3z"/>
	<path fill="#FFFFFF" d="M58.5,37.5c0.1,0.1,0.2,0.1,0.2,0.1c0.1,0,0.1-0.1,0.1-0.3l0-0.8c0-0.2,0-0.3,0-0.3c0,0-0.2,0-0.3,0.1
		l-1,0.5c-0.1,0-0.2,0.1-0.2,0.1c0,0,0.1,0.1,0.2,0.1L58.5,37.5z M56,36.6c-0.2-0.1-0.3-0.1-0.2-0.2c0,0,0.1-0.1,0.2-0.1l4.1-1.7
		c0.3-0.1,0.6-0.2,0.7-0.5c0.1-0.2,0.1-0.3,0.2-0.3c0.1,0,0.1,0.1,0.1,0.2c0,0.4-0.1,0.7-0.1,1c0,0.3,0,0.7,0,1
		c0,0.1-0.1,0.1-0.1,0.1c-0.1,0-0.1-0.1-0.2-0.2c0-0.2-0.2-0.3-0.4-0.3c-0.2,0-0.8,0.2-0.9,0.3c-0.1,0.1-0.1,0.2-0.1,0.6l0,1.1
		c0,0.4,0.7,0.6,1,0.6c0.1,0,0.3-0.2,0.3-0.3c0.1-0.2,0.1-0.5,0.3-0.5c0.1,0,0.1,0.1,0.1,0.2c0,0.2-0.1,0.5-0.1,0.7
		c0,0.2,0,0.5,0,0.7c0,0.1,0,0.2-0.1,0.2c-0.1,0-0.2-0.2-0.2-0.3c-0.1-0.1-0.2-0.2-0.3-0.3L56,36.6z"/>
	<path fill="#FFFFFF" d="M59.2,25.7c0.1,0,0.3,0,0.4,0.1c0.1,0,0.2,0.1,0.1,0.2c0,0.1-0.2,0.1-0.3,0.1c-0.9,0.2-1.5,0.7-1.7,1.3
		c-0.3,0.9,0,1.7,1.5,2.2c1.1,0.3,2.3,0,2.6-1c0.2-0.6,0.1-1.2-0.2-1.7c-0.1-0.1-0.2-0.3-0.1-0.4c0-0.1,0.1-0.1,0.1,0
		c0.2,0.1,1.1,1.2,0.7,2.6c-0.4,1.2-1.6,2.2-3.1,1.7c-1.9-0.6-2.2-2.1-1.9-3.3c0.2-0.8,0.8-1.2,0.9-1.4c0.1-0.2-0.2-0.2-0.1-0.4
		c0-0.1,0.1-0.1,0.1-0.1L59.2,25.7z"/>
	<path fill="#FFFFFF" d="M64.3,23.6c0.4-0.8-0.1-1.7-1-2.2c-0.9-0.5-2.6-0.7-3.1,0.3c-0.4,0.8,0.1,1.7,1,2.2
		C62.1,24.4,63.7,24.6,64.3,23.6 M60,21.3c0.7-1.3,2.1-1.9,3.5-1.1c1.4,0.8,1.7,2.6,0.9,3.9c-0.7,1.3-2.1,1.8-3.4,1.1
		C59.6,24.4,59.3,22.6,60,21.3"/>
	<path fill="#FFFFFF" d="M63.3,18.2c-0.2-0.2-0.6-0.4-0.8-0.3c-0.2,0.1-0.3,0.2-0.4,0.1c-0.1-0.1-0.1-0.1,0-0.1
		c0.1-0.2,0.3-0.3,0.5-0.5c0.1-0.2,0.3-0.4,0.4-0.5c0.1-0.1,0.1-0.1,0.3-0.1l3.2,0.9c0.3,0.1,0.4,0.1,0.5,0.1c0,0,0-0.2-0.1-0.3
		l-1.3-3.2c-0.1-0.2-0.1-0.2,0-0.2c0.1-0.2,0.3-0.3,0.5-0.5c0.1-0.2,0.3-0.4,0.4-0.5c0,0,0.1,0,0.1,0c0.1,0.1,0,0.2-0.1,0.4
		c-0.1,0.3-0.1,0.4,0.2,0.7l2,1.7c0.5,0.4,0.8,0.6,1.3,0.3c0.1-0.1,0.2-0.1,0.3,0c0.1,0.1,0,0.2-0.1,0.3c-0.2,0.2-0.4,0.4-0.6,0.6
		c-0.2,0.2-0.4,0.5-0.5,0.7c-0.1,0.1-0.2,0.2-0.3,0.1c-0.1-0.1-0.1-0.2,0-0.3c0.1-0.2,0-0.3-0.3-0.6l-1.8-1.5
		c-0.1,0-0.2-0.1-0.2-0.1c0,0,0,0.1,0.1,0.3l1.3,3.1c0,0.1,0.1,0.2,0,0.3c-0.1,0.1-0.1,0-0.2,0l-3.3-0.9c-0.1,0-0.2-0.1-0.2,0
		c0,0,0,0.1,0.1,0.2l1.5,1.3c0.3,0.3,0.7,0.5,1.2,0.2c0.1-0.1,0.2-0.1,0.3,0c0.1,0.1,0,0.2,0,0.2c-0.2,0.2-0.4,0.3-0.5,0.5
		c-0.2,0.2-0.3,0.4-0.5,0.6c0,0.1-0.1,0.1-0.2,0c-0.1-0.1-0.1-0.2,0-0.3c0.1-0.4,0-0.6-0.3-0.9L63.3,18.2z"/>
	<path fill="#FFFFFF" d="M68.8,12.3c-0.2-0.2-0.5-0.5-0.8-0.5c-0.3,0-0.4,0.1-0.4,0c-0.1-0.1,0-0.1,0-0.1c0.2-0.1,0.4-0.2,0.6-0.4
		c0.2-0.1,0.3-0.3,0.5-0.4c0.1-0.1,0.2-0.1,0.3,0l2.9,1.6c0.3,0.2,0.4,0.2,0.4,0.2c0,0,0-0.2,0-0.3L71.7,9c0-0.2,0-0.2,0-0.2
		c0.2-0.1,0.4-0.2,0.6-0.4s0.3-0.3,0.5-0.4c0,0,0.1,0,0.1,0.1c0.1,0.1,0,0.2-0.2,0.4c-0.2,0.2-0.2,0.4,0,0.7l1.5,2.1
		c0.4,0.5,0.6,0.8,1.2,0.6c0.2,0,0.2-0.1,0.3,0c0.1,0.1,0,0.2-0.2,0.3c-0.3,0.1-0.5,0.3-0.7,0.5c-0.2,0.2-0.5,0.4-0.7,0.6
		c-0.1,0.1-0.2,0.2-0.3,0.1c-0.1-0.1,0-0.2,0-0.3c0.1-0.2,0-0.3-0.2-0.6l-1.4-1.9c0-0.1-0.1-0.2-0.1-0.1c0,0,0,0.1,0,0.3l0.6,3.3
		c0,0.1,0,0.2-0.1,0.3c-0.1,0.1-0.1,0-0.2,0l-3-1.7c-0.1-0.1-0.2-0.1-0.2-0.1c0,0,0,0.1,0.1,0.2l1.1,1.6c0.3,0.4,0.6,0.6,1.1,0.5
		c0.1,0,0.2,0,0.3,0.1c0.1,0.1,0,0.2-0.1,0.2c-0.2,0.1-0.5,0.2-0.7,0.4c-0.2,0.2-0.4,0.3-0.6,0.5c-0.1,0-0.1,0.1-0.2,0
		c-0.1-0.1,0-0.2,0-0.3c0.2-0.4,0.1-0.6-0.1-0.9L68.8,12.3z"/>
	<path fill="#FFFFFF" d="M78.9,10.5c0.8-0.3,1-1.4,0.6-2.4c-0.4-0.9-1.6-2.2-2.6-1.7c-0.8,0.3-1,1.4-0.6,2.4
		C76.6,9.7,77.8,11,78.9,10.5 M77,6c1.4-0.6,2.8-0.1,3.4,1.3c0.6,1.5-0.3,3.1-1.7,3.7c-1.4,0.6-2.8,0.1-3.4-1.3
		C74.7,8.2,75.6,6.6,77,6"/>
	<path fill="#FFFFFF" d="M82.3,5.9c-0.2-0.1-0.4-0.2-0.4-0.2c0,0-0.1,0,0,0.2l0.5,2.6C82.5,8.8,82.6,9,83,9c0.2,0,0.4,0,0.5,0.1
		c0,0.1-0.1,0.2-0.3,0.2c-0.2,0-0.5,0-0.8,0.1c-0.3,0-0.5,0.2-0.7,0.2c-0.1,0-0.1,0-0.2-0.1c0-0.1,0.1-0.2,0.2-0.2
		C82,9,82.1,8.8,82,8.4l-0.6-2.7c-0.1-0.3-0.2-0.6-0.5-0.7c-0.3-0.1-0.4-0.1-0.4-0.2c0-0.1,0-0.1,0.1-0.1c0.2,0,0.4-0.1,0.7-0.1
		c0.2,0,0.4-0.1,0.6-0.2c0.2,0,0.2,0,0.3,0l3.4,2.3c0.1,0.1,0.2,0.2,0.3,0.1c0.1,0,0-0.1,0-0.2l-0.3-1.6c-0.1-0.5-0.2-0.9-0.7-0.9
		c-0.2,0-0.4,0-0.4-0.1c0-0.1,0.1-0.1,0.2-0.2c0.3,0,0.5,0,0.8-0.1c0.3-0.1,0.5-0.2,0.7-0.2c0.1,0,0.2,0,0.2,0.1
		c0,0.1-0.1,0.2-0.2,0.2c-0.3,0.3-0.4,0.5-0.3,0.9l0.7,3.5c0.1,0.3,0.1,0.4,0,0.4c-0.1,0-0.3-0.1-0.5-0.3L82.3,5.9z"/>
	<path fill="#FFFFFF" d="M87.5,4c-0.1-0.2-0.2-0.3-0.3-0.4C87.1,3.6,87,3.6,87,3.5c0-0.1,0.1-0.1,0.2-0.1c0.3,0,0.6,0.1,0.9,0.1
		c0.3,0,0.6,0,0.9,0c0.1,0,0.2,0,0.2,0.1c0,0.1-0.1,0.1-0.2,0.2c-0.2,0.1-0.2,0.2-0.2,0.3c0,0.1,0.1,0.2,0.2,0.5l0.8,2.4
		c0,0.1,0,0.1,0.1,0.1c0,0,0.1-0.1,0.1-0.2l0.8-1.6l-0.4-1.2c-0.1-0.2-0.2-0.3-0.3-0.4c-0.1-0.1-0.2-0.1-0.2-0.2
		c0-0.1,0.1-0.1,0.2-0.1c0.3,0,0.6,0.1,0.9,0.1c0.3,0,0.6-0.1,0.9,0c0.1,0,0.2,0,0.2,0.1c0,0.1-0.1,0.1-0.2,0.2
		c-0.2,0.1-0.2,0.2-0.2,0.3c0,0.1,0.1,0.4,0.2,0.5l0.8,2.2c0,0.1,0,0.1,0.1,0.1c0.1,0,0.1-0.1,0.2-0.3l0.7-1.9
		c0.1-0.2,0.1-0.4,0.1-0.6c0-0.3-0.4-0.3-0.6-0.4c-0.1-0.1-0.2-0.1-0.2-0.2c0-0.1,0.1-0.1,0.2-0.1c0.2,0,0.5,0.1,0.7,0.1
		s0.5-0.1,0.7,0c0.1,0,0.2,0,0.2,0.1c0,0.1-0.2,0.1-0.3,0.2c-0.2,0.2-0.2,0.3-0.4,0.8l-1.4,3.5c-0.2,0.4-0.2,0.4-0.3,0.4
		c-0.1,0-0.2,0-0.2-0.3l-0.8-2.3c0-0.1-0.1-0.2-0.1-0.2c0,0-0.1,0.1-0.1,0.2l-1.1,2.2c-0.2,0.3-0.2,0.4-0.3,0.4
		c-0.1,0-0.1,0-0.2-0.3L87.5,4z"/>
	<path fill="#FFFFFF" d="M95.7,5.1c0.1-0.4,0.1-0.9-0.1-1c-0.2-0.1-0.4-0.2-0.3-0.3c0-0.1,0.1-0.1,0.3-0.1C96,3.9,96.6,4,97.1,4.1
		c0.6,0.1,1.1,0.2,1.7,0.3c0.2,0,0.3,0.1,0.3,0.2c0,0.2-0.1,0.3-0.1,0.5c0,0.2,0,0.3-0.1,0.5c0,0.1-0.1,0.1-0.2,0.1
		c-0.1,0-0.1-0.2-0.1-0.2c0-0.5-0.1-0.7-1-0.9l-0.5-0.1c-0.2,0-0.3,0-0.3,0.3L96.6,6c0,0.1,0.1,0.2,0.4,0.2c0.4,0.1,0.8,0,0.9-0.3
		c0.1-0.2,0.2-0.2,0.2-0.2c0.1,0,0.1,0.1,0.1,0.2c0,0.2-0.1,0.4-0.2,0.6c0,0.2-0.1,0.4-0.1,0.7c0,0.1,0,0.2-0.2,0.2
		c-0.1,0-0.1-0.2-0.1-0.4c-0.1-0.3-0.3-0.4-0.7-0.5c-0.3-0.1-0.4,0-0.5,0.2L96.2,8c-0.1,0.5,0,0.6,0.3,0.7c0.8,0.2,1.2,0,1.5-0.2
		c0.3-0.2,0.4-0.4,0.5-0.4c0.1,0,0.1,0.1,0.1,0.2c0,0.1-0.1,0.4-0.2,0.5c-0.2,0.3-0.5,0.6-0.9,0.5c-0.5-0.1-0.9-0.3-1.4-0.4
		c-0.5-0.1-1-0.1-1.5-0.2c-0.2,0-0.3-0.1-0.3-0.2c0-0.1,0.2-0.1,0.3-0.2c0.3-0.1,0.3-0.2,0.4-0.6L95.7,5.1z"/>
	<path fill="#FFFFFF" d="M101.1,8C101,8.1,101,8.1,101,8.1c0,0.1,0.1,0.1,0.3,0.2l0.7,0.3c0.2,0.1,0.3,0.1,0.3,0.1c0,0,0-0.2,0-0.3
		l-0.1-1.1c0-0.1,0-0.2-0.1-0.2c0,0-0.2,0.1-0.2,0.1L101.1,8z M102.8,6c0.2-0.1,0.2-0.2,0.3-0.2c0,0,0,0.1,0.1,0.2l0.2,4.4
		c0,0.3,0,0.7,0.2,0.8c0.2,0.1,0.3,0.2,0.2,0.3c0,0.1-0.1,0.1-0.2,0c-0.3-0.1-0.6-0.3-0.9-0.4c-0.3-0.1-0.6-0.2-1-0.3
		c-0.1,0-0.1-0.1-0.1-0.1c0-0.1,0.1-0.1,0.2-0.1c0.2,0,0.4-0.1,0.4-0.3c0.1-0.2,0.1-0.8,0-1c-0.1-0.1-0.2-0.2-0.5-0.3l-1-0.4
		c-0.3-0.1-0.8,0.5-0.9,0.8c0,0.1,0.1,0.3,0.2,0.4c0.2,0.1,0.4,0.3,0.4,0.4c0,0.1-0.1,0.1-0.2,0c-0.2-0.1-0.4-0.2-0.7-0.3
		c-0.2-0.1-0.5-0.1-0.7-0.2c-0.1,0-0.2-0.1-0.1-0.2c0-0.1,0.2-0.1,0.4-0.1c0.1,0,0.2-0.1,0.3-0.2L102.8,6z"/>
	<path fill="#FFFFFF" d="M106.7,8.5c0.2-0.4,0.1-0.6-0.2-0.8c-0.1,0-0.1-0.1,0-0.2c0-0.1,0.1-0.1,0.2,0c0.3,0.2,0.6,0.4,0.9,0.6
		c0.3,0.2,0.6,0.3,0.9,0.5c0.1,0.1,0.2,0.1,0.1,0.2c-0.1,0.1-0.2,0.1-0.3,0c-0.3-0.1-0.5,0.1-0.6,0.3l-1.7,2.7
		c-0.3,0.5-0.3,0.6,0.1,0.8c0.7,0.4,1.1,0.4,1.5,0.4c0.3-0.1,0.5-0.2,0.7-0.1c0.1,0.1,0.1,0.2,0,0.3c-0.3,0.5-1.1,0.6-1.5,0.3
		c-0.4-0.3-1.2-0.8-1.7-1.1c-0.2-0.1-0.5-0.2-0.7-0.4c-0.1-0.1-0.3-0.2-0.2-0.3c0.1-0.1,0.2,0,0.4-0.1c0.3,0,0.5-0.2,0.6-0.4
		L106.7,8.5z"/>
	<path fill="#FFFFFF" d="M111.3,11.5c0.2-0.2,0.1-0.4-0.2-0.6c-0.5-0.4-0.8-0.6-1.4-0.2c0,0-0.1,0-0.1,0c-0.1-0.1-0.1-0.1,0-0.2
		c0-0.1,0.1-0.1,0.2-0.2l0.5-0.5c0.1-0.1,0.1-0.1,0.3,0c0.6,0.5,1.1,1,1.7,1.5c0.6,0.5,1.2,0.9,1.8,1.4c0.1,0.1,0.1,0.1,0,0.4
		l-0.4,0.6c0,0-0.1,0.1-0.1,0.1c0,0-0.1,0-0.1,0c-0.1-0.1-0.1-0.1-0.1-0.1c0.3-0.7,0.1-0.9-0.4-1.4c-0.3-0.3-0.5-0.3-0.6-0.1
		l-2.2,2.6c-0.4,0.4,0,0.8,0.1,1c0,0.1,0.1,0.1,0,0.3c-0.1,0.1-0.1,0-0.2,0c-0.3-0.3-0.6-0.6-1-0.9c-0.3-0.3-0.7-0.5-1.1-0.8
		c-0.1-0.1-0.1-0.1-0.1-0.2c0.1-0.1,0.2,0,0.3,0c0.3,0.1,0.6,0.4,1-0.1L111.3,11.5z"/>
	<path fill="#FFFFFF" d="M115.6,17.8c0.2,0.2,0.3,0.2,0.4,0.1l0.8-0.6c0.3-0.3,0.3-0.6,0.1-0.8c-0.1-0.1-0.1-0.2,0-0.2
		c0.1-0.1,0.2,0.1,0.4,0.3c0.2,0.2,0.3,0.5,0.5,0.7c0.2,0.2,0.4,0.4,0.6,0.6c0.1,0.1,0.1,0.2,0,0.2c-0.1,0.1-0.2,0-0.3,0
		c-0.2-0.1-0.5-0.1-0.7,0.1l-2.5,2.1c-0.3,0.3-0.3,0.6-0.1,0.8c0.1,0.1,0.1,0.2,0,0.2c-0.1,0.1-0.2-0.1-0.4-0.2
		c-0.2-0.2-0.3-0.5-0.5-0.7c-0.2-0.2-0.4-0.4-0.6-0.6c-0.1-0.1-0.1-0.2,0-0.2c0.1-0.1,0.2,0,0.3,0c0.3,0.2,0.5,0.1,0.7-0.1l1.1-0.9
		c0.2-0.1,0.2-0.2,0-0.4l-1.1-1.4c-0.1-0.1-0.2,0-0.3,0l-1.1,0.9c-0.3,0.3-0.3,0.6-0.1,0.8c0.1,0.1,0.1,0.2,0,0.2
		c-0.1,0.1-0.2-0.1-0.4-0.3c-0.2-0.2-0.3-0.5-0.5-0.7c-0.2-0.2-0.4-0.4-0.6-0.6c-0.1-0.1-0.1-0.2,0-0.2c0.1-0.1,0.2,0,0.3,0
		c0.2,0.2,0.5,0.1,0.7-0.1l2.5-2.1c0.3-0.3,0.3-0.6,0.1-0.8c-0.1-0.1-0.1-0.2,0-0.2c0.1-0.1,0.2,0.1,0.4,0.3
		c0.2,0.2,0.3,0.5,0.5,0.7c0.2,0.2,0.4,0.4,0.6,0.6c0.1,0.1,0.1,0.2,0,0.2c-0.1,0.1-0.2,0-0.3,0c-0.3-0.2-0.5-0.1-0.7,0.1l-0.8,0.6
		c-0.1,0.1-0.1,0.2,0,0.4L115.6,17.8z"/>
	<path fill="#FFFFFF" d="M120.1,22.3c0.4-0.2,0.5-0.5,0.3-0.8c0-0.1,0-0.2,0.1-0.2c0.1,0,0.2,0,0.3,0.3c0.1,0.3,0.2,0.6,0.3,0.8
		c0.1,0.3,0.3,0.5,0.4,0.8c0.1,0.2,0,0.2,0,0.2c-0.1,0-0.2,0-0.3-0.1c-0.2-0.2-0.5-0.2-0.7-0.1l-2.1,0.9c-0.8,0.3-1.1,1.1-0.8,1.9
		c0.5,1.2,1.6,1.1,2.4,0.7l1.7-0.8c0.3-0.2,0.5-0.4,0.3-0.8c0-0.1,0-0.2,0.1-0.3c0.1,0,0.1,0,0.2,0.2c0.1,0.2,0.1,0.4,0.2,0.6
		c0.1,0.2,0.2,0.4,0.3,0.6c0.1,0.1,0,0.2,0,0.2c-0.1,0-0.2-0.1-0.3-0.2c-0.2-0.2-0.3-0.2-0.9,0.1l-1.4,0.6c-1.5,0.7-2.6,0.2-3.2-1.3
		c-0.5-1.2-0.3-2.2,0.9-2.7L120.1,22.3z"/>
	<path fill="#FFFFFF" d="M122.2,29.4c0.1-0.2,0.2-0.4,0.2-0.4c0,0,0-0.1-0.2,0l-2.6,0.6c-0.4,0.1-0.6,0.3-0.6,0.6
		c0,0.2,0,0.4-0.1,0.5c-0.1,0-0.2-0.1-0.2-0.3c-0.1-0.2-0.1-0.5-0.1-0.8c-0.1-0.2-0.2-0.5-0.2-0.7c0-0.1,0-0.2,0.1-0.2
		c0.1,0,0.2,0.1,0.3,0.1c0.3,0.3,0.5,0.4,0.9,0.3l2.7-0.6c0.3-0.1,0.6-0.3,0.7-0.5c0.1-0.3,0.1-0.4,0.2-0.4c0.1,0,0.1,0,0.1,0.1
		c0,0.2,0.1,0.4,0.1,0.6c0,0.2,0.1,0.4,0.2,0.6c0,0.2,0,0.2,0,0.3l-2.3,3.4c-0.1,0.1-0.1,0.2-0.1,0.3c0,0.1,0.1,0,0.2,0l1.6-0.4
		c0.5-0.1,0.9-0.2,0.9-0.7c0-0.2,0-0.4,0.1-0.4c0.1,0,0.1,0.1,0.2,0.2c0.1,0.2,0.1,0.5,0.1,0.8c0.1,0.2,0.2,0.5,0.2,0.7
		c0,0.1,0,0.1-0.1,0.2c-0.1,0-0.2-0.1-0.2-0.1c-0.3-0.3-0.5-0.4-0.9-0.3l-3.4,0.8c-0.3,0.1-0.4,0.1-0.4,0c0-0.1,0.1-0.3,0.3-0.5
		L122.2,29.4z"/>
	<path fill="#FFFFFF" d="M120.6,36.4c-0.5,0-0.6,0.4-0.6,0.6c0,0.1,0,0.2-0.2,0.2c-0.1,0-0.1-0.2-0.1-0.4c0-0.2,0-0.5,0-0.8
		c0-0.3-0.1-0.6-0.1-0.9c0-0.1,0-0.2,0.1-0.3c0.1,0,0.2,0.1,0.2,0.2c0.1,0.3,0.4,0.3,0.6,0.3l3.3-0.2c0.5,0,0.6-0.3,0.6-0.6
		c0-0.1,0.1-0.2,0.2-0.2c0.1,0,0.1,0.2,0.1,0.4c0,0.3,0,0.6,0,0.9c0,0.3,0.1,0.6,0.1,0.9c0,0.1,0,0.2-0.1,0.2
		c-0.1,0-0.2-0.2-0.2-0.3c-0.1-0.3-0.4-0.3-0.6-0.3L120.6,36.4z"/>
	<path fill="#FFFFFF" d="M123.3,41.8c0.2,0.1,0.3,0.2,0.4,0.2c0.1,0,0.2,0,0.3-0.1c0.1-0.1,0.1-0.3,0.3-0.5c0.1-0.1,0.1-0.2,0.2-0.1
		c0.1,0,0.1,0.1,0.1,0.2c0,0.3-0.1,0.5-0.1,0.7c0,0.2,0,0.5,0,0.7c0,0.1,0,0.2-0.1,0.2c-0.1,0-0.1-0.2-0.2-0.3
		c-0.2-0.2-0.3-0.3-0.8-0.5l-3.5-1.9c-0.4-0.2-0.4-0.3-0.4-0.4c0-0.1,0.1-0.2,0.3-0.2l4.2-1.6c0.4-0.1,0.4-0.3,0.5-0.5
		c0.1-0.1,0.1-0.2,0.2-0.2c0.1,0,0.1,0.1,0.1,0.2c0,0.3-0.1,0.7-0.1,1c0,0.3,0,0.7,0,1c0,0.1,0,0.2-0.1,0.2c-0.1,0-0.1-0.1-0.2-0.2
		c0-0.2-0.2-0.3-0.3-0.3c-0.1,0-0.3,0.1-0.4,0.1l-2.3,0.9c-0.3,0.1-0.3,0.1-0.3,0.2c0,0,0.1,0.1,0.2,0.2L123.3,41.8z"/>
	<path fill="#FFFFFF" d="M122.9,44.3c0.4,0.1,0.9,0.2,1-0.1c0.1-0.2,0.2-0.3,0.3-0.3c0.1,0,0.1,0.1,0,0.3c-0.2,0.5-0.3,1.1-0.5,1.6
		c-0.1,0.5-0.2,1.1-0.3,1.7c0,0.2-0.1,0.3-0.2,0.3c-0.2,0-0.3-0.1-0.5-0.1c-0.2,0-0.3,0-0.5-0.1c-0.1,0-0.1-0.1-0.1-0.2
		c0-0.1,0.2-0.1,0.2-0.1c0.5,0.1,0.7-0.1,0.9-0.9l0.1-0.5c0-0.2,0-0.3-0.3-0.3l-1.2-0.3c-0.1,0-0.2,0.1-0.2,0.4
		c-0.1,0.4-0.1,0.8,0.2,0.9c0.2,0.1,0.2,0.2,0.2,0.2c0,0.1-0.1,0.1-0.2,0.1c-0.2-0.1-0.4-0.1-0.6-0.2c-0.2-0.1-0.4-0.1-0.6-0.1
		c-0.1,0-0.2,0-0.2-0.2c0-0.1,0.2-0.1,0.4-0.1c0.3-0.1,0.4-0.3,0.5-0.7c0.1-0.3,0-0.4-0.2-0.5l-1.2-0.3c-0.5-0.1-0.6-0.1-0.7,0.3
		c-0.2,0.7-0.1,1.2,0.1,1.5c0.2,0.3,0.4,0.4,0.4,0.5c0,0.1-0.1,0.1-0.2,0.1c-0.1,0-0.4-0.2-0.5-0.2c-0.3-0.2-0.5-0.6-0.5-0.9
		c0.1-0.5,0.3-0.9,0.4-1.4c0.1-0.5,0.2-1,0.3-1.4c0.1-0.2,0.1-0.3,0.2-0.3c0.1,0,0.1,0.2,0.2,0.3c0.1,0.3,0.2,0.3,0.6,0.4
		L122.9,44.3z"/>
	<path fill="#FFFFFF" d="M120.3,50.2c-0.1,0-0.2-0.1-0.4,0.3c-0.3,0.6-0.1,1,0.6,1.3c0.5,0.2,1.1,0.1,1.3-0.4
		c0.2-0.4,0.1-0.5-0.2-0.6L120.3,50.2z M121.8,49.6c0.4,0.2,0.6,0,0.8-0.3c0.1-0.1,0.1-0.1,0.2-0.1c0.1,0,0.1,0.1,0,0.2
		c-0.1,0.2-0.2,0.3-0.4,0.8c-0.2,0.4-0.3,0.9-0.4,1.2c-0.4,0.9-1,1.8-2.1,1.3c-0.5-0.2-0.6-0.5-0.6-0.9c0-0.2,0-0.4,0-0.4
		c-0.1,0-1.8,0.1-2.3,0.3c-0.1,0-0.2,0.1-0.2,0.1c0,0.1,0,0.2-0.1,0.2c0,0.1-0.1,0.1-0.2,0.1c-0.3-0.1,0-0.9,0.1-1.2
		c0.1-0.2,0.3-0.4,0.7-0.4l1.8-0.2c0.3,0,0.5-0.1,0.6-0.3c0.1-0.2,0.1-0.2,0-0.3l-1.1-0.5c-0.6-0.2-0.8-0.1-0.9,0.2
		c0,0.1-0.1,0.1-0.2,0.1c-0.1,0-0.1-0.1,0.1-0.4c0.1-0.3,0.3-0.5,0.4-0.8c0.1-0.3,0.2-0.6,0.3-0.8c0-0.1,0.1-0.2,0.2-0.1
		c0.1,0,0.1,0.2,0.1,0.3c0,0.3,0.2,0.5,0.4,0.6L121.8,49.6z"/>
	<path fill="#FFFFFF" d="M117.1,53c0.1,0,0.2,0,0.2,0.1c0,0,0.1,0.1,0,0.2c-0.1,0.1-0.3,0-0.4,0c-0.6-0.1-1.3,0.1-1.7,0.7
		c-0.3,0.4-0.2,1,0.2,1.2c1,0.6,2-2,3.7-0.9c0.6,0.4,0.9,1.3,0.4,2c-0.3,0.5-0.8,0.7-0.9,0.9c0,0.1,0,0.3-0.1,0.3
		c-0.1,0.1-0.1,0.1-0.2,0c-0.3-0.2-1-0.5-1-0.5c-0.1,0-0.1-0.1-0.1-0.2c0.1-0.1,0.2-0.1,0.4,0c0.5,0.1,1.3-0.1,1.6-0.6
		c0.2-0.4,0.2-0.8-0.1-1.1c-1-0.7-2,2-3.7,0.9c-0.6-0.4-1.1-1.3-0.5-2.3c0.3-0.4,0.6-0.7,0.9-1c0.1-0.1,0.1-0.1,0.2-0.1L117.1,53z"
		/>
	<path fill="#FFFFFF" d="M113.4,57.5c-0.4-0.3-0.7-0.1-0.8,0.1c-0.1,0.1-0.1,0.1-0.2,0c-0.1-0.1,0-0.2,0.2-0.4
		c0.1-0.2,0.4-0.4,0.6-0.6c0.2-0.2,0.3-0.5,0.5-0.7c0.1-0.1,0.2-0.2,0.3-0.1c0.1,0.1,0,0.2,0,0.3c-0.1,0.3,0.1,0.5,0.3,0.6l2.5,2.1
		c0.4,0.3,0.6,0.2,0.8,0c0.1-0.1,0.1-0.1,0.2,0c0.1,0.1,0,0.2-0.2,0.4c-0.2,0.2-0.4,0.4-0.6,0.6c-0.2,0.2-0.3,0.5-0.5,0.7
		c-0.1,0.1-0.1,0.2-0.2,0.1c-0.1-0.1,0-0.2,0-0.3c0.1-0.3-0.1-0.5-0.3-0.6L113.4,57.5z"/>
	<path fill="#FFFFFF" d="M113.7,62.2c0.2,0.2,0.3,0.1,0.6-0.1c0.5-0.5,0.7-0.7,0.3-1.4c0,0,0-0.1,0.1-0.1c0.1-0.1,0.1-0.1,0.2,0
		c0,0,0.1,0.1,0.2,0.2l0.5,0.6c0.1,0.1,0.1,0.2,0,0.3c-0.5,0.5-1.1,1-1.7,1.5c-0.5,0.5-1.1,1.1-1.6,1.6c-0.1,0.1-0.2,0.1-0.4,0
		l-0.6-0.5c0,0-0.1-0.1-0.1-0.1c0,0,0-0.1,0-0.1c0.1-0.1,0.1-0.1,0.1,0c0.6,0.4,0.9,0.2,1.4-0.2c0.3-0.3,0.3-0.4,0.2-0.6l-2.3-2.5
		c-0.4-0.4-0.8-0.1-1,0c-0.1,0-0.2,0.1-0.3,0c-0.1-0.1,0-0.1,0-0.2c0.3-0.3,0.7-0.6,1-0.9c0.3-0.3,0.6-0.7,0.9-0.9
		c0.1-0.1,0.1-0.1,0.2,0c0.1,0.1,0,0.2,0,0.3c-0.1,0.2-0.5,0.6-0.1,1L113.7,62.2z"/>
	<path fill="#FFFFFF" d="M107.4,66.7c0,0.2,0.1,0.3,0.1,0.4c0.1,0.2,0.4,0.1,0.7,0c0.1,0,0.2,0,0.2,0.1c0.1,0.1,0,0.1-0.1,0.2
		c-0.2,0.1-0.5,0.2-0.7,0.4c-0.2,0.1-0.4,0.3-0.6,0.5c-0.1,0-0.1,0.1-0.2,0c-0.1-0.1,0-0.1,0.1-0.3c0.1-0.2,0.2-0.4,0.1-0.9
		l-0.1-1.8c0-0.2,0-0.3-0.1-0.4l-0.6-1c-0.2-0.3-0.4-0.5-0.8-0.3c-0.2,0.1-0.3,0.2-0.4,0c-0.1-0.1,0.1-0.2,0.3-0.4
		c0.3-0.2,0.6-0.3,0.9-0.5c0.2-0.1,0.5-0.4,0.7-0.5c0.2-0.1,0.3-0.2,0.4-0.1c0.1,0.1,0,0.2-0.2,0.3c-0.3,0.3-0.2,0.5,0,0.8l0.5,0.8
		c0,0.1,0.1,0.1,0.2,0.1l2.1,1.1c0.5,0.2,0.7,0.3,0.9,0.2c0.2-0.1,0.3-0.1,0.4,0c0.1,0.1,0,0.2-0.2,0.2c-0.3,0.2-0.6,0.3-0.9,0.5
		c-0.3,0.2-0.5,0.4-0.8,0.6c-0.1,0.1-0.2,0.1-0.3,0c-0.1-0.1,0.1-0.2,0.2-0.3c0.1-0.1,0.1-0.2,0-0.2c-0.1-0.1-0.2-0.2-0.3-0.3
		l-1.2-0.7c-0.2-0.1-0.3-0.1-0.3-0.1c0,0,0,0.2,0,0.3L107.4,66.7z"/>
	<path fill="#FFFFFF" d="M79.8,68.3c-0.2,0-0.3,0-0.4,0c-0.1,0-0.2,0-0.3,0.1c-0.1,0-0.1,0.1-0.2,0.2c-0.1,0.1-0.2,0.2-0.3,0.3
		l-0.1,0c0-0.2,0-0.3,0-0.4c0-0.1,0-0.2-0.1-0.3c0-0.1-0.1-0.1-0.2-0.2c-0.1-0.1-0.2-0.2-0.3-0.3l0-0.1c0.2,0,0.3,0,0.4,0
		c0.1,0,0.2,0,0.3-0.1c0.1,0,0.1-0.1,0.2-0.2c0.1-0.1,0.2-0.2,0.3-0.3l0.1,0c0,0.2,0,0.3,0,0.4c0,0.1,0,0.2,0.1,0.3
		c0,0.1,0.1,0.1,0.2,0.2C79.5,68,79.6,68.1,79.8,68.3L79.8,68.3z"/>
	<path fill="#FFFFFF" d="M84.1,67.5c0-0.1-0.1-0.2-0.2-0.3c-0.2,0-0.3,0-0.4,0c-0.1,0-0.2,0-0.1-0.2c0-0.1,0.2-0.1,0.3-0.1
		c0.4,0,0.8,0,1.2-0.2c0.1,0,0.1-0.1,0.2-0.1c0.1,0,0.1,0.1,0.1,0.2l-0.8,4c-0.1,0.4,0.1,0.5,0.3,0.6c0.1,0.1,0.3,0.1,0.3,0.2
		c0,0.1-0.1,0.1-0.3,0.1c-0.3-0.1-0.6-0.2-0.9-0.2c-0.3-0.1-0.6-0.1-0.9-0.1c-0.2,0-0.2-0.1-0.2-0.2c0-0.1,0.2-0.1,0.4-0.1
		c0.2,0,0.4-0.1,0.5-0.4L84.1,67.5z"/>
	<path fill="#FFFFFF" d="M87.2,67.9c-0.1,0.7,1,1,1.2,1c0.4,0,0.6-0.3,0.6-0.7c0-0.6-0.4-1-1-1C87.6,67.3,87.2,67.4,87.2,67.9
		 M87.4,69.8c-0.1,0-0.1-0.1-0.2-0.1c-0.1,0-0.4,0.3-0.4,0.8c-0.1,0.7,0.3,1.3,1.1,1.3c0.4,0,1-0.1,1-0.7c0-0.4-0.1-0.6-0.4-0.8
		L87.4,69.8z M89.6,68.2c0,0.5-0.3,0.7-0.8,0.9c-0.1,0-0.2,0-0.2,0.1c0,0,0.1,0.1,0.1,0.1c0.5,0.3,0.9,0.8,0.9,1.5
		c-0.1,1.1-1,1.5-2,1.4c-0.8-0.1-1.6-0.5-1.6-1.5c0-0.5,0.3-0.9,0.8-1c0.1,0,0.1,0,0.1,0c0,0-0.1-0.1-0.1-0.1
		c-0.3-0.3-0.5-0.7-0.5-1.2c0.1-0.9,0.9-1.3,1.7-1.3C88.8,67,89.7,67.4,89.6,68.2"/>
	<path fill="#FFFFFF" d="M91.7,67.6c-0.5,0-0.6,0.4-0.8,0.4c-0.1,0-0.1,0-0.1-0.1c0-0.2,0.6-0.9,1.4-0.9c0.5,0,1.1,0.2,1.1,0.8
		c0,0.5-0.3,0.8-0.7,1.1c0,0,0,0.1,0,0.1c0,0,0,0,0.1,0c0.7,0,1.1,0.4,1.1,1.1c0.1,1.1-0.7,2-1.8,2c-0.6,0-1.3-0.3-1.3-0.5
		c0-0.1,0-0.1,0.1-0.1c0.2,0,0.3,0.4,1,0.3c0.7,0,1-0.6,1-1.3c0-0.5-0.3-0.9-0.8-0.9c-0.1,0-0.2,0.1-0.3,0.1c-0.1,0-0.1,0-0.1-0.1
		c0-0.1,0.2-0.2,0.3-0.2c0.4-0.2,0.6-0.6,0.6-1.1C92.4,67.8,92.1,67.5,91.7,67.6"/>
	<path fill="#FFFFFF" d="M96,69.4c-0.1,0-0.1,0-0.2,0c-0.1,0-0.3,0.4-0.2,0.8c0.1,0.7,0.6,1.2,1.4,1c0.4-0.1,0.9-0.4,0.8-1
		c-0.1-0.4-0.3-0.6-0.6-0.6L96,69.4z M95.2,67.7c0.1,0.7,1.3,0.7,1.4,0.7c0.4-0.1,0.5-0.5,0.4-0.8c-0.1-0.6-0.6-0.8-1.2-0.7
		C95.5,66.9,95.1,67.2,95.2,67.7 M97.7,67.3c0.1,0.5-0.1,0.8-0.5,1c-0.1,0-0.2,0.1-0.2,0.1c0,0,0.1,0,0.2,0.1
		c0.6,0.2,1.1,0.6,1.2,1.2c0.2,1.1-0.6,1.7-1.6,1.9c-0.8,0.2-1.7-0.1-1.9-1c-0.1-0.5,0.1-0.9,0.5-1.2c0.1,0,0.1-0.1,0.1-0.1
		c0,0-0.1,0-0.1-0.1c-0.4-0.2-0.7-0.5-0.7-1c-0.2-0.9,0.5-1.5,1.3-1.7C96.6,66.4,97.5,66.5,97.7,67.3"/>
	<path fill="#FFFFFF" d="M103.3,67.3c-0.1,0.1-0.2,0.2-0.3,0.3c-0.1,0.1-0.1,0.2-0.2,0.2c0,0.1-0.1,0.2-0.1,0.3c0,0.1,0,0.3,0,0.4
		l-0.1,0c-0.1-0.1-0.2-0.2-0.3-0.3c-0.1-0.1-0.2-0.1-0.2-0.1c-0.1,0-0.2-0.1-0.3-0.1c-0.1,0-0.3,0-0.4,0l0-0.1
		c0.1-0.1,0.2-0.2,0.3-0.3c0.1-0.1,0.1-0.2,0.1-0.2c0-0.1,0.1-0.2,0.1-0.3c0-0.1,0-0.3,0-0.4l0.1,0c0.1,0.1,0.2,0.2,0.3,0.3
		c0.1,0.1,0.2,0.1,0.2,0.2c0.1,0,0.2,0.1,0.3,0.1C103,67.2,103.1,67.2,103.3,67.3L103.3,67.3z"/>
	<path fill="#FEBE10" d="M117.7,37.9c0,15.2-12.3,27.4-27.4,27.4c-15.2,0-27.4-12.3-27.4-27.4c0-15.2,12.3-27.4,27.4-27.4
		C105.5,10.4,117.7,22.7,117.7,37.9"/>
	<g>
		<defs>
			<path id="SVGID_1_" d="M62.9,37.9c0,15.2,12.3,27.4,27.4,27.4c15.2,0,27.4-12.3,27.4-27.4c0-15.2-12.3-27.4-27.4-27.4
				C75.1,10.4,62.9,22.7,62.9,37.9"/>
		</defs>
		<clipPath id="SVGID_2_">
			<use xlink:href="#SVGID_1_"  overflow="visible"/>
		</clipPath>
		<path clip-path="url(#SVGID_2_)" d="M84.6,35.8l-0.2,17c0,0,0,0.1,0.1,0.2c0.1,0.1,0.5,0.2,1.8,0.2c1.3,0,1.7-0.2,1.8-0.2
			c0.1-0.1,0.1-0.2,0.1-0.2l-0.1-17c-0.2-0.1-0.7-0.3-1.7-0.3C85.2,35.5,84.7,35.7,84.6,35.8"/>
		<path clip-path="url(#SVGID_2_)" d="M86.3,30.4c-2.1,0-2.6,0.7-2.6,0.7l0,0.2c0,0,0.4,0,0.6,0.5c0.2,0.6,0.3,2.7,0.3,2.7l0,0.2
			c0.3-0.2,0.8-0.3,1.7-0.3c0.9,0,1.4,0.1,1.7,0.3l0-0.2c0,0,0-1.8,0.3-2.7c0.2-0.4,0.5-0.5,0.5-0.5l0-0.2
			C88.9,31,88.4,30.4,86.3,30.4"/>
		<path clip-path="url(#SVGID_2_)" d="M92.5,35.8l-0.1,17c0,0,0,0.1,0.1,0.2c0.1,0.1,0.5,0.2,1.8,0.2c1.3,0,1.7-0.1,1.8-0.2
			c0.1-0.1,0.1-0.2,0.1-0.2l-0.2-17c-0.2-0.1-0.6-0.4-1.7-0.4C93.1,35.5,92.7,35.7,92.5,35.8"/>
		<path clip-path="url(#SVGID_2_)" d="M96.8,31.1c0,0-0.5-0.7-2.6-0.7c-2.1,0-2.6,0.6-2.6,0.6l0,0.2c0,0,0.3,0.1,0.5,0.5
			c0.4,0.8,0.3,2.7,0.3,2.7l0,0.2c0.3-0.1,0.8-0.3,1.7-0.3c0.9,0,1.4,0.2,1.7,0.3l0-0.2c0,0,0.1-2.1,0.3-2.7
			c0.2-0.4,0.6-0.5,0.6-0.5L96.8,31.1z"/>
		<path clip-path="url(#SVGID_2_)" d="M108.5,52.7h-4c-0.1,0-0.1-0.1-0.1-0.1l-0.6-19.8c0,0,0-0.1,0.1-0.1h2.7
			c0.1,0,0.1,0.1,0.1,0.1l1.9,19.8C108.7,52.5,108.7,52.7,108.5,52.7 M107.4,32c0,0,0-0.1-0.1-0.1h-3.9c-0.1,0-0.1,0.1-0.1,0.1
			l0.6,21.3c0,0,0,0.2,0.1,0.2h5.5c0.2,0,0.2-0.2,0.2-0.2L107.4,32z"/>
		<path clip-path="url(#SVGID_2_)" d="M76.2,52.5c0,0,0,0.1-0.1,0.1h-4c-0.2,0-0.1-0.2-0.1-0.2l1.9-19.8c0,0,0-0.1,0.1-0.1h2.7
			c0.1,0,0.1,0.1,0.1,0.1L76.2,52.5z M76.7,53.4L77.3,32c0,0,0-0.1-0.1-0.1h-3.9c-0.1,0-0.1,0.1-0.1,0.1L71,53.4c0,0,0,0.2,0.2,0.2
			h5.5C76.8,53.5,76.7,53.4,76.7,53.4"/>
		<path clip-path="url(#SVGID_2_)" d="M109.6,28.8c0,0-0.5,0.3-0.7,0.6c-0.2,0.3-0.2,0.8-0.2,0.8h-7c0,0,0-0.4-0.2-0.8
			c-0.2-0.4-0.6-0.6-0.6-0.6v-0.2c0,0,0-0.1,0.2-0.1h1.6c0.5,0.7,1.3,1.2,2.6,1.2c1.3,0,2.2-0.5,2.6-1.2h1.5c0.1,0,0.1,0.1,0.1,0.1
			V28.8z M98.7,27.5H81.9v-0.9h16.7V27.5z M85.6,23.4c0,0,0.9,0.3,1.8,0.3c1.1,0,1.4-0.3,1.7-0.1c0.2,0.2,0,0.4,0,0.7
			c0,0.2,0.2,0.5,0.5,0.4c0.2,0,0.3-0.1,0.3-0.2c-0.1-0.1-0.2-0.3-0.2-0.5c0-0.3,0.3-0.6,0.6-0.6c0.3,0,0.6,0.3,0.6,0.6
			c0,0.2-0.1,0.4-0.2,0.5c0.1,0.1,0.2,0.2,0.3,0.2c0.3,0,0.5-0.2,0.5-0.4c0-0.3-0.2-0.6,0-0.7c0.3-0.2,0.6,0,1.7,0.1
			c0.9,0,1.7-0.3,1.8-0.3c0,0-0.3,1.2-2,1.6c-1.3,0.3-2.6,0.3-2.6,0.3h0c0,0-1.2,0-2.6-0.3C85.9,24.6,85.6,23.5,85.6,23.4
			 M79.6,28.8c0,0-0.4,0.3-0.6,0.6c-0.2,0.4-0.2,0.8-0.2,0.8h-7c0,0,0-0.4-0.2-0.8c-0.2-0.3-0.7-0.6-0.7-0.6v-0.2c0,0,0-0.1,0.1-0.1
			h1.5c0.5,0.7,1.3,1.2,2.6,1.2c1.3,0,2.2-0.5,2.6-1.2h1.6c0.1,0,0.2,0.1,0.2,0.1V28.8z M110.8,26.5l-12.2,0l0.1-0.9l11.7,0
			c0,0,0-0.5,0-0.7c0-0.7,0.4-1.2,0.4-1.2l1.5-1.9v-0.6c0-0.1,0-0.1-0.1-0.1H98.2c-0.1,0-0.1,0-0.1,0.1v1.1H82.5v-1.1
			c0,0,0-0.1-0.1-0.1H68.3c-0.1,0-0.1,0-0.1,0.1v0.6l1.5,1.9c0,0,0.4,0.5,0.4,1.2c0,0.1,0,0.7,0,0.7l11.7,0l0.1,0.9l-12.2,0l-3.9,29
			h3.3l2.7-24.6h6.9l-0.3,24.6h2.7l0.8-1.2l0-25h16.7l0,25l0.8,1.2h2.7l-0.3-24.6h6.9l2.7,24.6h3.3L110.8,26.5z"/>
	</g>
	<path d="M83.5,18.3c0,1.1,0.7,0.8,0.7,1c0,0,0,0.1-0.2,0.1c-0.2,0-0.4,0-0.7,0c-0.3,0-0.6,0-0.7,0c-0.1,0-0.1-0.1-0.1-0.1
		c0-0.2,0.5-0.1,0.6-0.8l0.1-2.7c0-1.1-0.7-0.8-0.7-1.1c0,0,0-0.1,0.1-0.1c0.1,0,0.2,0,0.4,0c0.2,0,0.4,0,0.6,0c0.1,0,0.1,0,0.2,0.2
		l1.5,3.2c0,0.1,0,0.1,0.1,0.1c0,0,0.1-0.1,0.1-0.1l1.6-3.2c0,0,0-0.1,0.2-0.1c0.2,0,0.3,0,0.4,0c0.1,0,0.2,0,0.4,0
		c0.2,0,0.2,0,0.2,0.1c0,0.2-0.7,0-0.6,0.8l0.1,3c0,0.9,0.7,0.6,0.7,0.8c0,0.1-0.1,0.1-0.3,0.1c-0.2,0-0.4,0-0.6,0
		c-0.4,0-0.6,0-0.7,0c-0.1,0-0.3,0-0.3-0.1c0-0.2,0.5,0,0.5-0.7l-0.1-2c0-0.2,0-0.3-0.1-0.3c0,0-0.1,0.1-0.2,0.4l-1.3,2.6
		c0,0.1-0.1,0.2-0.2,0.2c-0.1,0-0.1-0.1-0.2-0.2l-1.3-2.9c0,0,0-0.1-0.1-0.1c0,0,0,0.1,0,0.2L83.5,18.3z"/>
	<path d="M92.7,16.2c0,0.1,0,0.2-0.1,0.2c-0.1,0-0.2-0.1-0.2-0.2c-0.3-0.6-0.9-1.2-1.7-1.2c-1,0-1.5,0.9-1.5,1.8
		c0,0.9,0.5,2.3,1.8,2.3c1,0,1.5-0.9,1.7-0.9c0,0,0.1,0,0.1,0.1c0,0.3-0.7,1.3-2.1,1.3c-2,0-2.3-1.7-2.3-2.2c0-1.1,0.7-2.6,2.4-2.6
		c0.8,0,1.3,0.4,1.5,0.4c0.1,0,0.1-0.2,0.2-0.2c0,0,0.1,0,0.1,0L92.7,16.2z"/>
	<path d="M95.8,19.4c-0.1,0.2-0.1,0.2-0.2,0.2c-0.1,0-0.1-0.1-0.3-0.4l-1.7-3.9c-0.1-0.3-0.2-0.3-0.5-0.4c0,0-0.1,0-0.1-0.1
		c0-0.2,0.2-0.1,0.3-0.1c0.2,0,0.4,0,0.7,0c0.4,0,0.6,0,0.7,0c0.2,0,0.2,0,0.2,0.1c0,0.2-0.4,0.1-0.4,0.4c0,0.2,0.1,0.5,0.3,0.9
		l0.9,2.2c0,0,0.1,0.1,0.1,0.1c0,0,0.1-0.1,0.1-0.1l0.9-2c0.2-0.4,0.2-0.7,0.2-0.8c0-0.6-0.7-0.4-0.7-0.6c0-0.1,0.2-0.1,0.3-0.1
		c0.2,0,0.4,0,0.6,0c0.2,0,0.4,0,0.6,0c0.1,0,0.2,0,0.2,0.1c0,0.2-0.3,0.1-0.5,0.5L95.8,19.4z"/>
	<path d="M86.3,58.9c0,0.2,0.3,0.2,0.5,0.2c1.1,0,1.1-0.4,1.1-0.8c0-0.7-0.4-1.2-1.1-1.2c-0.3,0-0.5,0-0.5,0.4V58.9z M85.5,57.6
		c0-0.8-0.8-0.5-0.8-0.8c0-0.1,0.1-0.1,0.2-0.1c0.3,0,0.4,0,0.8,0c0.5,0,0.9,0,1.4,0c1.5,0,1.7,1,1.7,1.3c0,0.4-0.2,0.7-0.4,0.9
		c-0.2,0.2-0.4,0.2-0.4,0.3c0,0,0.6,1,1.1,1.9c0.1,0.1,0.2,0.1,0.3,0.1c0.1,0,0.1,0,0.2,0c0.1,0,0.1,0,0.1,0.1
		c0,0.2-0.5,0.4-0.7,0.4c-0.5,0-0.8-0.4-1-0.8l-0.6-1.1c-0.2-0.3-0.3-0.4-0.6-0.4c-0.4,0-0.3,0-0.3,0.3v1.2c0,0.7,0.7,0.5,0.7,0.7
		c0,0.1-0.1,0.1-0.2,0.1c-0.1,0-0.3,0-0.6,0c-0.4,0-0.7,0-1.1,0c-0.1,0-0.2,0-0.2-0.1c0-0.2,0.6,0,0.6-0.9V57.6z"/>
	<path d="M91.2,60.7c0,0.9,0.7,0.6,0.7,0.8c0,0.1-0.1,0.1-0.2,0.1c-0.5,0-0.8,0-0.9,0c-0.3,0-0.8,0-0.9,0c0,0-0.1,0-0.1-0.1
		c0-0.2,0.6,0,0.6-0.9v-3c0-0.7-0.7-0.4-0.7-0.7c0,0,0-0.1,0.2-0.1c0,0,0.4,0,1,0c0.1,0,0.6,0,1.1,0c0.9,0,1.7,0.3,1.7,1.3
		c0,0.9-0.6,1.4-1.5,1.4c-0.7,0-0.7-0.2-0.7-0.2c0,0,0-0.1,0.1-0.1c0.1,0,0.2,0,0.3,0c0.8,0,0.9-0.8,0.9-1c0-0.2-0.1-1.2-1.1-1.2
		c-0.3,0-0.4,0.1-0.4,0.5V60.7z"/>
	<path d="M95.7,60.8c0,0.9,0.8,0.5,0.8,0.8c0,0.1-0.1,0.1-0.2,0.1c-0.3,0-0.5,0-1.1,0c-0.3,0-0.6,0-0.8,0c-0.1,0-0.1,0-0.1-0.1
		c0-0.2,0.5-0.1,0.5-0.7v-3.3c0-0.6-0.8-0.4-0.8-0.7c0-0.1,0.2-0.1,0.2-0.1c0.3,0,0.5,0,0.8,0c0.2,0,0.5,0,0.9,0
		c0.2,0,0.2,0,0.2,0.1c0,0.2-0.5,0-0.5,0.6V60.8z"/>
	<path d="M99.1,16.8l6.5,0.3l-6.5,0.3c0,0-1.1,0-1.1-0.3C98,16.8,99.1,16.8,99.1,16.8"/>
	<path d="M81.1,17.5l-6.5-0.3l6.5-0.3c0,0,1.1,0,1.1,0.3C82.2,17.5,81.1,17.5,81.1,17.5"/>
	<path d="M97.9,58.9l6.5,0.3l-6.5,0.3c0,0-1.1,0-1.1-0.3C96.8,58.9,97.9,58.9,97.9,58.9"/>
	<path d="M82.9,59.6l-6.5-0.3l6.5-0.3c0,0,1.1,0,1.1,0.3C84,59.6,82.9,59.6,82.9,59.6"/>
</g>
</svg>
