<?xml version="1.0" encoding="utf-8"?>
<!-- Generator: Adobe Illustrator 18.0.0, SVG Export Plug-In . SVG Version: 6.00 Build 0)  -->
<!DOCTYPE svg PUBLIC "-//W3C//DTD SVG 1.1//EN" "http://www.w3.org/Graphics/SVG/1.1/DTD/svg11.dtd">
<svg version="1.1" id="Layer_1" xmlns="http://www.w3.org/2000/svg" xmlns:xlink="http://www.w3.org/1999/xlink" x="0px" y="0px"
	 viewBox="0 0 258.4 75.9" enable-background="new 0 0 258.4 75.9" xml:space="preserve">
<g>
	<polygon fill="#FEBE10" points="77.3,7.5 95.9,7.5 109.8,51.6 124.3,7.5 141.1,7.5 119,68.3 98.8,68.3 	"/>
	<path fill="#FEBE10" d="M178.4,26.6c-0.8-6.2-5.1-8.4-9.9-8.4c-10.2,0-13.3,9.4-13.3,20.5c0,3.7,0.1,19,13.1,19
		c8.9,0,9.9-6.5,10.2-8.8h17.5c-0.1,19-19.5,20.7-27.4,20.7c-5.9,0-16.4-1-23.1-8.1c-6.7-7.1-7.8-16.8-7.8-23.1
		c0-8.3,1.9-16.7,7.7-23.2c6.2-7.1,14.2-8.9,23.1-8.9c9.9,0,17.4,2.4,22.2,7.4c4.9,5.2,5,10.7,5.1,13H178.4z"/>
	<path fill="#FEBE10" d="M217.5,7.5v36.2c0,3.3,0.3,6.7,1.9,9.2c2.3,3.4,6.2,5,10.4,5c10.7,0,12.1-8.7,12.1-14.7V7.5h16.4v35.2
		c0,6.7-0.9,14.1-4.7,18.5c-5.9,7.2-16.8,8.7-24.4,8.7c-28.7,0-28.8-17.9-28.8-27.8l0.1-34.6H217.5z"/>
	<path fill="#FEBE10" d="M75.9,38c0,21-17,38-38,38c-21,0-38-17-38-38C0,17,17,0,38,0C58.9,0,75.9,17,75.9,38"/>
	<path d="M38,65.5c-15.2,0-27.5-12.3-27.5-27.5c0-15.2,12.3-27.5,27.5-27.5c15.2,0,27.5,12.3,27.5,27.5C65.5,53.2,53.2,65.5,38,65.5
		 M38,1.4C17.8,1.4,1.4,17.8,1.4,38c0,20.2,16.4,36.6,36.6,36.6c20.2,0,36.6-16.4,36.6-36.6C74.5,17.8,58.2,1.4,38,1.4"/>
	<path fill="#FFFFFF" d="M18.9,65.3c-0.2,0.1-0.3,0.2-0.4,0.3c-0.1,0.1-0.1,0.2-0.1,0.3c0,0.1,0.2,0.3,0.3,0.5
		c0.1,0.1,0.1,0.2,0,0.2c-0.1,0.1-0.1,0.1-0.2,0c-0.2-0.1-0.4-0.3-0.6-0.4c-0.2-0.1-0.5-0.2-0.7-0.3c-0.1,0-0.1-0.1-0.1-0.2
		c0.1-0.1,0.2,0,0.4-0.1c0.2,0,0.4-0.2,0.8-0.4l3.3-2.2c0.4-0.2,0.4-0.2,0.5-0.2c0.1,0.1,0.1,0.2,0.1,0.4l-0.6,4.4
		c-0.1,0.4,0.1,0.5,0.2,0.7c0.1,0.1,0.1,0.1,0.1,0.2c-0.1,0.1-0.1,0.1-0.2,0c-0.3-0.2-0.5-0.4-0.8-0.6c-0.3-0.2-0.6-0.3-0.9-0.5
		c0,0-0.2-0.1-0.1-0.2c0.1-0.1,0.2-0.1,0.3,0c0.2,0.1,0.3,0,0.4-0.2c0.1-0.1,0.1-0.3,0.1-0.4l0.4-2.5c0-0.3,0.1-0.3,0-0.4
		c0,0-0.1,0-0.2,0.1L18.9,65.3z"/>
	<path fill="#FFFFFF" d="M18,60.8c0.3-0.3,0.1-0.7,0-0.8c-0.1-0.1-0.1-0.1,0-0.2c0.1-0.1,0.2,0,0.4,0.2c0.2,0.1,0.4,0.4,0.6,0.6
		c0.2,0.2,0.5,0.3,0.7,0.5c0.1,0.1,0.2,0.2,0.1,0.3c-0.1,0.1-0.2,0-0.3,0c-0.3-0.1-0.5,0.1-0.7,0.2l-2.1,2.5c-0.3,0.3-0.2,0.6,0,0.8
		c0.1,0.1,0.1,0.1,0,0.2c-0.1,0.1-0.2,0-0.4-0.2c-0.2-0.2-0.4-0.4-0.6-0.6c-0.2-0.2-0.5-0.3-0.7-0.5c-0.1-0.1-0.2-0.1-0.1-0.2
		c0.1-0.1,0.3,0,0.3,0c0.3,0.1,0.5-0.1,0.6-0.3L18,60.8z"/>
	<path fill="#FFFFFF" d="M14.3,60.1c0.1-0.1,0.2-0.2-0.1-0.5c-0.4-0.5-0.8-0.5-1.4,0c-0.4,0.4-0.6,0.9-0.1,1.4
		c0.3,0.3,0.4,0.3,0.6,0.1L14.3,60.1z M14.1,61.8c-0.3,0.3-0.3,0.6-0.1,0.8c0.1,0.1,0.1,0.2,0,0.2c-0.1,0-0.1,0.1-0.2-0.1
		c-0.1-0.1-0.2-0.3-0.6-0.7c-0.3-0.3-0.7-0.7-0.9-0.9c-0.7-0.7-1.2-1.6-0.3-2.4c0.4-0.3,0.7-0.3,1.1-0.2c0.2,0.1,0.3,0.2,0.4,0.1
		c0.1-0.1,0.6-1.7,0.7-2.2c0-0.1,0-0.2,0-0.2c-0.1-0.1-0.1-0.1-0.2-0.2c-0.1-0.1,0-0.1,0-0.2c0.2-0.2,0.8,0.4,1,0.6
		c0.1,0.2,0.2,0.4,0.1,0.8l-0.6,1.7c-0.1,0.2-0.1,0.5,0,0.7c0.1,0.1,0.2,0.2,0.3,0.1l0.9-0.8c0.4-0.4,0.4-0.7,0.2-0.9
		c-0.1-0.1-0.1-0.2,0-0.2c0.1-0.1,0.1,0,0.4,0.2c0.2,0.2,0.3,0.5,0.5,0.7c0.2,0.2,0.4,0.4,0.6,0.6c0.1,0.1,0.1,0.2,0.1,0.2
		c-0.1,0.1-0.2,0-0.3,0c-0.3-0.2-0.5,0-0.7,0.1L14.1,61.8z"/>
	<path fill="#FFFFFF" d="M10.9,53.2c-0.4,0.2-0.3,0.5-0.2,0.8c0,0.1,0,0.1-0.1,0.2c-0.1,0.1-0.2,0-0.3-0.3c-0.2-0.2-0.3-0.5-0.4-0.8
		c-0.2-0.3-0.3-0.5-0.5-0.7c-0.1-0.1-0.1-0.2,0-0.2c0.1-0.1,0.2,0,0.3,0.1c0.2,0.2,0.5,0.1,0.7,0l0.9-0.6c0.1-0.1,1.2,0.8,1.7,1.6
		c0.8,1.3,0.5,2.7-0.7,3.5c-1.3,0.8-3,0.4-3.7-0.8c-0.5-0.8-0.5-1.5-0.5-1.6c-0.1-0.2-0.3,0-0.4-0.2c0,0,0-0.1,0-0.1l0.8-0.6
		c0.1-0.1,0.2-0.2,0.3-0.2c0.1-0.1,0.2-0.1,0.2,0c0,0.1-0.1,0.2-0.1,0.3c-0.6,1.1-0.4,1.6-0.2,2.1c0.6,1,1.7,0.9,2.7,0.3
		c0.9-0.6,1.9-1.5,1.3-2.6c-0.3-0.6-0.7-0.7-1.3-0.3L10.9,53.2z"/>
	<path fill="#FFFFFF" d="M9.9,49.4c0.4-0.2,0.4-0.6,0.3-0.8c0-0.1,0-0.2,0.1-0.2c0.1,0,0.2,0.2,0.3,0.3c0.1,0.2,0.2,0.5,0.3,0.8
		c0.1,0.3,0.3,0.5,0.4,0.8c0.1,0.1,0.1,0.2,0,0.3c-0.1,0-0.2-0.1-0.2-0.1c-0.2-0.2-0.5-0.2-0.7-0.1l-3,1.3c-0.4,0.2-0.4,0.5-0.3,0.8
		c0,0.1,0,0.2-0.1,0.2c-0.1,0-0.2-0.1-0.3-0.3c-0.1-0.3-0.2-0.6-0.3-0.8C6.1,51.3,6,51,5.8,50.8c0-0.1-0.1-0.2,0-0.2
		c0.1,0,0.2,0.1,0.3,0.2c0.2,0.2,0.5,0.1,0.7,0L9.9,49.4z"/>
	<path fill="#FFFFFF" d="M6.3,47.5c-0.1,0.2-0.2,0.4-0.2,0.4c0,0,0,0.1,0.2,0l2.5-0.6c0.3-0.1,0.6-0.3,0.6-0.6
		c0-0.2-0.1-0.4,0.1-0.5c0.1,0,0.2,0.1,0.2,0.3c0.1,0.2,0.1,0.5,0.1,0.8c0.1,0.2,0.2,0.5,0.2,0.7c0,0.1,0,0.1-0.1,0.2
		c-0.1,0-0.2,0-0.3-0.1c-0.3-0.3-0.5-0.4-0.9-0.3l-2.7,0.7c-0.3,0.1-0.6,0.3-0.7,0.6c-0.1,0.3-0.1,0.4-0.2,0.4c-0.1,0-0.1,0-0.1-0.1
		C5.1,49,5.1,48.8,5,48.6c-0.1-0.2-0.1-0.4-0.2-0.6c0-0.2,0-0.2,0-0.3L7,44.2c0.1-0.1,0.1-0.2,0.1-0.3c0-0.1-0.1,0-0.2,0l-1.6,0.4
		c-0.5,0.1-0.9,0.3-0.9,0.7c0,0.2,0,0.4-0.1,0.4c-0.1,0-0.1-0.1-0.2-0.2c-0.1-0.2-0.1-0.5-0.1-0.8c-0.1-0.3-0.2-0.5-0.2-0.7
		c0-0.1,0-0.1,0.1-0.2c0.1,0,0.2,0,0.3,0.1C4.4,44,4.6,44,5,43.9l3.4-0.9c0.3-0.1,0.4-0.1,0.4,0c0,0.1-0.1,0.3-0.2,0.5L6.3,47.5z"/>
	<path fill="#FFFFFF" d="M7.7,40.4c0.5,0,0.6-0.5,0.5-0.6c0-0.1,0-0.2,0.2-0.2c0.1,0,0.1,0.2,0.2,0.4c0,0.2,0,0.5,0,0.8
		c0,0.3,0.1,0.6,0.1,0.9c0,0.1,0,0.2-0.1,0.3c-0.1,0-0.2-0.1-0.2-0.2c-0.1-0.3-0.4-0.3-0.6-0.3l-3.3,0.3c-0.5,0-0.6,0.3-0.6,0.6
		c0,0.1,0,0.2-0.2,0.2c-0.1,0-0.1-0.2-0.2-0.4c0-0.3,0-0.6,0-0.9c0-0.3-0.1-0.6-0.1-0.9c0-0.1,0-0.2,0.1-0.2c0.1,0,0.2,0.2,0.2,0.3
		c0.1,0.3,0.4,0.3,0.6,0.2L7.7,40.4z"/>
	<path fill="#FFFFFF" d="M6.1,37.6c0.1,0.1,0.2,0.1,0.2,0.1c0.1,0,0.1-0.1,0.1-0.3l0-0.8c0-0.2,0-0.3,0-0.3c0,0-0.2,0-0.3,0.1
		l-1,0.5c-0.1,0-0.2,0.1-0.2,0.1c0,0,0.1,0.1,0.2,0.1L6.1,37.6z M3.6,36.6c-0.2-0.1-0.3-0.1-0.2-0.2c0,0,0.1-0.1,0.2-0.1l4.1-1.7
		c0.3-0.1,0.6-0.2,0.7-0.5c0.1-0.2,0.1-0.3,0.2-0.3c0.1,0,0.1,0.1,0.1,0.2c0,0.4-0.1,0.7-0.1,1c0,0.3,0,0.7,0,1
		c0,0.1-0.1,0.1-0.1,0.1c-0.1,0-0.1-0.1-0.2-0.2c0-0.2-0.2-0.3-0.4-0.3c-0.2,0-0.8,0.2-0.9,0.3c-0.1,0.1-0.1,0.2-0.2,0.6l0,1.1
		c0,0.4,0.7,0.6,1,0.6c0.1,0,0.3-0.2,0.3-0.3c0.1-0.2,0.1-0.5,0.3-0.5c0.1,0,0.1,0.1,0.1,0.2c0,0.2-0.1,0.5-0.1,0.7
		c0,0.2,0,0.5,0,0.7c0,0.1,0,0.2-0.1,0.2c-0.1,0-0.2-0.2-0.2-0.3C8,39,7.9,39,7.8,38.9L3.6,36.6z"/>
	<path fill="#FFFFFF" d="M6.8,25.7c0.1,0,0.3,0,0.4,0.1c0.1,0,0.2,0.1,0.1,0.2c0,0.1-0.2,0.1-0.3,0.1c-0.9,0.2-1.5,0.7-1.7,1.3
		c-0.3,0.9,0,1.7,1.5,2.2c1.1,0.3,2.3,0,2.6-1c0.2-0.6,0.1-1.2-0.2-1.7c-0.1-0.1-0.2-0.3-0.1-0.4c0-0.1,0.1-0.1,0.1,0
		c0.2,0.1,1.1,1.2,0.7,2.7c-0.4,1.2-1.6,2.2-3.1,1.7c-2-0.6-2.2-2.1-1.9-3.3c0.2-0.8,0.8-1.2,0.9-1.4c0.1-0.2-0.2-0.2-0.1-0.4
		c0-0.1,0.1-0.1,0.1-0.1L6.8,25.7z"/>
	<path fill="#FFFFFF" d="M11.9,23.7c0.4-0.8-0.1-1.7-1-2.2c-0.9-0.5-2.6-0.7-3.1,0.3c-0.4,0.8,0.1,1.7,1,2.2
		C9.7,24.4,11.4,24.7,11.9,23.7 M7.6,21.3c0.7-1.3,2.1-1.9,3.5-1.1c1.4,0.8,1.7,2.6,0.9,3.9c-0.7,1.3-2.1,1.8-3.4,1.1
		C7.2,24.5,6.9,22.7,7.6,21.3"/>
	<path fill="#FFFFFF" d="M11,18.2c-0.2-0.2-0.6-0.4-0.9-0.3C9.9,18,9.8,18.1,9.7,18c-0.1-0.1-0.1-0.1,0-0.1c0.1-0.2,0.3-0.3,0.5-0.5
		c0.1-0.2,0.3-0.4,0.4-0.5c0.1-0.1,0.1-0.1,0.3-0.1l3.2,0.9c0.3,0.1,0.4,0.1,0.5,0.1c0,0,0-0.2-0.1-0.3l-1.3-3.2C13,14,13,14,13,14
		c0.1-0.2,0.3-0.3,0.5-0.5c0.1-0.2,0.3-0.4,0.4-0.5c0,0,0.1,0,0.1,0c0.1,0.1,0,0.2-0.1,0.4c-0.1,0.3-0.1,0.4,0.2,0.7l2,1.7
		c0.5,0.4,0.8,0.6,1.3,0.3c0.1-0.1,0.2-0.1,0.3,0c0.1,0.1,0,0.2-0.1,0.3c-0.2,0.2-0.4,0.4-0.6,0.6c-0.2,0.2-0.4,0.5-0.5,0.7
		c-0.1,0.1-0.2,0.2-0.3,0.1c-0.1-0.1-0.1-0.2,0-0.3c0.1-0.2,0-0.3-0.3-0.6l-1.8-1.5c-0.1,0-0.2-0.1-0.2-0.1c0,0,0,0.1,0.1,0.3
		l1.3,3.1c0,0.1,0.1,0.2,0,0.3c-0.1,0.1-0.1,0-0.2,0l-3.3-1c-0.1,0-0.2-0.1-0.2,0c0,0,0,0.1,0.1,0.2l1.5,1.3
		c0.3,0.3,0.7,0.5,1.2,0.2c0.1-0.1,0.2-0.1,0.3,0c0.1,0.1,0,0.2,0,0.2c-0.2,0.2-0.4,0.3-0.5,0.5c-0.2,0.2-0.3,0.4-0.5,0.6
		c0,0.1-0.1,0.1-0.2,0c-0.1-0.1-0.1-0.2,0-0.3c0.1-0.4,0-0.6-0.3-0.9L11,18.2z"/>
	<path fill="#FFFFFF" d="M16.4,12.4c-0.2-0.2-0.5-0.5-0.8-0.5c-0.3,0-0.4,0.1-0.4,0c-0.1-0.1,0-0.1,0-0.1c0.2-0.1,0.4-0.2,0.6-0.4
		c0.2-0.1,0.3-0.3,0.5-0.4c0.1-0.1,0.2-0.1,0.3,0l2.9,1.6c0.3,0.2,0.4,0.2,0.4,0.2c0,0,0-0.2,0-0.3L19.4,9c0-0.2,0-0.2,0-0.2
		c0.2-0.1,0.4-0.2,0.6-0.4c0.2-0.1,0.3-0.3,0.5-0.4c0,0,0.1,0,0.1,0.1c0.1,0.1,0,0.2-0.2,0.4c-0.2,0.2-0.2,0.4,0,0.7l1.5,2.1
		c0.4,0.5,0.6,0.8,1.2,0.6c0.2,0,0.2-0.1,0.3,0c0.1,0.1-0.1,0.2-0.2,0.3c-0.3,0.1-0.5,0.3-0.7,0.5c-0.2,0.2-0.5,0.4-0.7,0.6
		c-0.1,0.1-0.2,0.2-0.3,0.1c-0.1-0.1,0-0.2,0-0.3c0.1-0.2,0-0.3-0.2-0.6l-1.4-1.9c0-0.1-0.1-0.2-0.1-0.1c0,0,0,0.1,0,0.3l0.6,3.3
		c0,0.1,0,0.2-0.1,0.3c-0.1,0.1-0.1,0-0.2,0l-3-1.7c-0.1-0.1-0.2-0.1-0.2-0.1c0,0,0,0.1,0.1,0.2l1.1,1.6c0.3,0.4,0.6,0.6,1.1,0.5
		c0.1,0,0.2,0,0.3,0.1c0.1,0.1,0,0.2-0.1,0.2c-0.2,0.1-0.5,0.3-0.7,0.4c-0.2,0.2-0.4,0.3-0.6,0.5c-0.1,0-0.1,0.1-0.2,0
		c-0.1-0.1,0-0.2,0-0.3c0.2-0.4,0.1-0.6-0.1-0.9L16.4,12.4z"/>
	<path fill="#FFFFFF" d="M26.5,10.5c0.8-0.3,1-1.4,0.6-2.4c-0.4-0.9-1.6-2.2-2.6-1.7c-0.8,0.3-1,1.4-0.6,2.4
		C24.3,9.7,25.5,11,26.5,10.5 M24.6,6c1.4-0.6,2.9-0.1,3.5,1.3c0.6,1.5-0.3,3.1-1.7,3.7c-1.4,0.6-2.8,0.1-3.4-1.3
		C22.4,8.2,23.2,6.6,24.6,6"/>
	<path fill="#FFFFFF" d="M29.9,5.9c-0.2-0.1-0.4-0.2-0.4-0.2c0,0-0.1,0,0,0.2L30,8.4c0.1,0.4,0.2,0.6,0.6,0.6c0.2,0,0.4,0,0.5,0.1
		c0,0.1-0.1,0.2-0.3,0.2c-0.3,0-0.5,0-0.8,0.1c-0.3,0.1-0.5,0.2-0.7,0.2c-0.1,0-0.1,0-0.2-0.1c0-0.1,0.1-0.2,0.2-0.2
		c0.3-0.3,0.4-0.5,0.3-0.9l-0.6-2.7C29,5.4,28.8,5.1,28.5,5c-0.3-0.1-0.4-0.1-0.4-0.2c0-0.1,0-0.1,0.1-0.1c0.2,0,0.4-0.1,0.7-0.1
		c0.2,0,0.4-0.1,0.6-0.2c0.2,0,0.2,0,0.3,0l3.4,2.3c0.1,0.1,0.2,0.2,0.3,0.1c0.1,0,0-0.1,0-0.2l-0.3-1.6c-0.1-0.5-0.2-0.9-0.7-0.9
		c-0.2,0-0.4,0-0.4-0.1c0-0.1,0.1-0.1,0.2-0.2c0.3-0.1,0.5,0,0.8-0.1c0.3-0.1,0.5-0.2,0.7-0.2c0.1,0,0.2,0,0.2,0.1
		c0,0.1-0.1,0.2-0.2,0.2c-0.3,0.3-0.4,0.5-0.3,0.9l0.7,3.5c0.1,0.3,0.1,0.4,0,0.4c-0.1,0-0.3-0.1-0.5-0.3L29.9,5.9z"/>
	<path fill="#FFFFFF" d="M35.2,4c-0.1-0.2-0.2-0.3-0.3-0.4c-0.1-0.1-0.2-0.1-0.2-0.2c0-0.1,0.1-0.1,0.2-0.1c0.3,0,0.6,0.1,0.9,0.1
		c0.3,0,0.6,0,0.9,0c0.1,0,0.2,0,0.2,0.1c0,0.1-0.1,0.1-0.2,0.2c-0.2,0.1-0.2,0.2-0.2,0.3c0,0.1,0.1,0.2,0.2,0.5l0.8,2.4
		c0,0.1,0,0.1,0.1,0.1c0,0,0.1-0.1,0.1-0.2l0.8-1.6l-0.4-1.2c-0.1-0.3-0.2-0.3-0.3-0.4c-0.1-0.1-0.2-0.1-0.2-0.2
		c0-0.1,0.1-0.1,0.2-0.1c0.3,0,0.6,0.1,0.9,0.1c0.3,0,0.6-0.1,0.9,0c0.1,0,0.2,0,0.2,0.1c0,0.1-0.1,0.1-0.2,0.2C39,3.8,39,3.9,39,4
		c0,0.1,0.1,0.4,0.2,0.5l0.8,2.2c0,0.1,0,0.1,0.1,0.1c0.1,0,0.1-0.1,0.2-0.3l0.7-1.9c0.1-0.2,0.1-0.4,0.1-0.6c0-0.3-0.4-0.3-0.6-0.4
		c-0.1-0.1-0.2-0.1-0.2-0.2c0-0.1,0.1-0.1,0.2-0.1c0.3,0,0.5,0.1,0.7,0.1c0.2,0,0.5-0.1,0.7,0c0.1,0,0.2,0,0.2,0.1
		c0,0.1-0.2,0.1-0.3,0.3c-0.2,0.2-0.2,0.3-0.4,0.8l-1.4,3.5c-0.2,0.4-0.2,0.4-0.3,0.4c-0.1,0-0.2,0-0.2-0.3L38.5,6
		c0-0.1-0.1-0.2-0.1-0.2c0,0-0.1,0.1-0.1,0.2l-1.1,2.2C37,8.5,37,8.6,36.9,8.6c-0.1,0-0.1,0-0.2-0.3L35.2,4z"/>
	<path fill="#FFFFFF" d="M43.3,5.1c0.1-0.4,0.1-0.9-0.1-1C43,4,42.8,3.9,42.9,3.8c0-0.1,0.1-0.1,0.3-0.1c0.5,0.2,1.1,0.3,1.6,0.4
		c0.6,0.1,1.1,0.2,1.7,0.3c0.2,0,0.3,0.1,0.3,0.2c0,0.2-0.1,0.3-0.1,0.5c0,0.2,0,0.3-0.1,0.5c0,0.1-0.1,0.1-0.2,0.1
		c-0.1,0-0.1-0.2-0.1-0.2c0-0.5-0.1-0.7-1-0.9l-0.5-0.1c-0.2,0-0.3,0-0.3,0.3l-0.3,1.3c0,0.1,0.1,0.2,0.4,0.2c0.4,0.1,0.8,0,0.9-0.3
		c0.1-0.2,0.2-0.2,0.2-0.2c0.1,0,0.1,0.1,0.1,0.2c0,0.2-0.1,0.4-0.2,0.6c0,0.2-0.1,0.4-0.1,0.7c0,0.1,0,0.2-0.2,0.2
		c-0.1,0-0.1-0.2-0.1-0.4c-0.1-0.3-0.3-0.4-0.7-0.5c-0.3-0.1-0.4,0-0.5,0.2l-0.3,1.2c-0.1,0.5,0,0.6,0.3,0.7c0.8,0.2,1.2,0,1.5-0.2
		c0.3-0.2,0.4-0.4,0.5-0.4c0.1,0,0.1,0.1,0.1,0.2c0,0.1-0.1,0.4-0.2,0.5c-0.2,0.3-0.5,0.6-0.9,0.5c-0.5-0.1-0.9-0.3-1.4-0.4
		c-0.5-0.1-1-0.1-1.5-0.2c-0.2,0-0.3-0.1-0.3-0.2c0-0.1,0.2-0.1,0.3-0.2c0.3-0.1,0.3-0.2,0.4-0.6L43.3,5.1z"/>
	<path fill="#FFFFFF" d="M48.8,8c-0.1,0.1-0.1,0.1-0.2,0.2c0,0.1,0.1,0.1,0.3,0.2l0.7,0.3C49.9,8.7,50,8.8,50,8.7c0,0,0-0.2,0-0.3
		l-0.1-1.1c0-0.1,0-0.2-0.1-0.2c0,0-0.2,0.1-0.2,0.1L48.8,8z M50.5,6c0.2-0.1,0.2-0.2,0.3-0.2c0,0,0,0.1,0.1,0.2l0.2,4.4
		c0,0.3,0,0.7,0.2,0.9c0.2,0.1,0.3,0.2,0.2,0.3c0,0.1-0.1,0.1-0.2,0c-0.3-0.1-0.6-0.3-0.9-0.4c-0.3-0.1-0.6-0.2-1-0.3
		c-0.1,0-0.1-0.1-0.1-0.1c0-0.1,0.1-0.1,0.2-0.1c0.2,0,0.4-0.1,0.4-0.3c0.1-0.2,0.1-0.8,0-1c-0.1-0.1-0.2-0.2-0.5-0.3l-1-0.4
		c-0.3-0.1-0.8,0.5-0.9,0.8c0,0.1,0.1,0.3,0.2,0.4c0.2,0.1,0.4,0.3,0.4,0.4c0,0.1-0.1,0.1-0.2,0c-0.2-0.1-0.4-0.2-0.7-0.3
		c-0.2-0.1-0.5-0.1-0.7-0.2c-0.1,0-0.2-0.1-0.1-0.2c0-0.1,0.2-0.1,0.4-0.1c0.1,0,0.2-0.1,0.3-0.2L50.5,6z"/>
	<path fill="#FFFFFF" d="M54.4,8.5c0.2-0.4,0.1-0.7-0.2-0.8c-0.1,0-0.1-0.1,0-0.2c0-0.1,0.1-0.1,0.2,0c0.3,0.2,0.6,0.4,0.9,0.6
		c0.3,0.2,0.6,0.3,0.9,0.5c0.1,0.1,0.2,0.1,0.1,0.2c-0.1,0.1-0.2,0.1-0.3,0c-0.3-0.1-0.5,0.1-0.6,0.3l-1.7,2.7
		c-0.3,0.5-0.3,0.6,0.1,0.8c0.7,0.4,1.1,0.4,1.5,0.4c0.3-0.1,0.5-0.2,0.7-0.1c0.1,0.1,0.1,0.2,0,0.3c-0.3,0.5-1.1,0.6-1.5,0.3
		c-0.4-0.3-1.2-0.8-1.7-1.1c-0.2-0.1-0.5-0.2-0.7-0.4c-0.1-0.1-0.3-0.2-0.2-0.3c0.1-0.1,0.2-0.1,0.4-0.1c0.3,0,0.5-0.2,0.6-0.4
		L54.4,8.5z"/>
	<path fill="#FFFFFF" d="M59,11.5c0.2-0.2,0.1-0.4-0.2-0.6c-0.5-0.4-0.8-0.6-1.4-0.2c0,0-0.1,0-0.1,0c-0.1-0.1-0.1-0.1,0-0.2
		c0-0.1,0.1-0.1,0.2-0.2l0.5-0.5c0.1-0.1,0.1-0.1,0.3,0c0.6,0.5,1.1,1,1.7,1.5c0.6,0.5,1.2,0.9,1.8,1.4c0.1,0.1,0.1,0.1,0,0.4
		l-0.4,0.6c0,0-0.1,0.1-0.1,0.1c0,0-0.1,0-0.1,0c-0.1-0.1-0.1-0.1-0.1-0.1c0.3-0.7,0.1-0.9-0.4-1.4c-0.3-0.3-0.5-0.3-0.6-0.1
		l-2.2,2.6c-0.4,0.4,0,0.8,0.1,1c0,0.1,0.1,0.1,0,0.3c-0.1,0.1-0.1,0-0.2,0c-0.3-0.3-0.6-0.6-1-0.9c-0.3-0.3-0.7-0.5-1.1-0.8
		c-0.1-0.1-0.1-0.1-0.1-0.2c0.1-0.1,0.2,0,0.3,0c0.3,0.1,0.6,0.4,1-0.1L59,11.5z"/>
	<path fill="#FFFFFF" d="M63.4,17.8c0.2,0.2,0.3,0.2,0.4,0.1l0.8-0.6c0.3-0.3,0.3-0.6,0.1-0.8c-0.1-0.1-0.1-0.2,0-0.2
		c0.1-0.1,0.2,0.1,0.4,0.3c0.2,0.2,0.3,0.5,0.5,0.7c0.2,0.2,0.4,0.4,0.6,0.6c0.1,0.1,0.1,0.2,0,0.2c-0.1,0.1-0.2,0-0.3,0
		c-0.2-0.1-0.5-0.1-0.7,0.1l-2.5,2.1c-0.3,0.3-0.3,0.6-0.1,0.8c0.1,0.1,0.1,0.2,0,0.2c-0.1,0.1-0.2-0.1-0.4-0.2
		c-0.2-0.2-0.3-0.5-0.5-0.7c-0.2-0.2-0.4-0.4-0.6-0.6c-0.1-0.1-0.1-0.2,0-0.2c0.1-0.1,0.2,0,0.3,0c0.3,0.2,0.5,0.1,0.7-0.1l1.1-0.9
		c0.2-0.1,0.2-0.2,0-0.4L62,16.8c-0.1-0.1-0.2,0-0.3,0l-1.1,0.9c-0.3,0.3-0.3,0.6-0.1,0.8c0.1,0.1,0.1,0.2,0,0.2
		c-0.1,0.1-0.2-0.1-0.4-0.3c-0.2-0.2-0.3-0.5-0.5-0.7c-0.2-0.2-0.4-0.4-0.6-0.6c-0.1-0.1-0.1-0.2,0-0.2c0.1-0.1,0.2,0,0.3,0
		c0.3,0.2,0.5,0.1,0.7-0.1l2.5-2.1c0.4-0.3,0.3-0.6,0.1-0.8c-0.1-0.1-0.1-0.2,0-0.2c0.1-0.1,0.2,0.1,0.4,0.3
		c0.2,0.2,0.3,0.5,0.5,0.7c0.2,0.2,0.4,0.4,0.6,0.6c0.1,0.1,0.1,0.2,0,0.2c-0.1,0.1-0.2,0-0.3,0c-0.3-0.2-0.5-0.1-0.7,0.1l-0.8,0.6
		c-0.1,0.1-0.1,0.2,0,0.4L63.4,17.8z"/>
	<path fill="#FFFFFF" d="M67.9,22.3c0.4-0.2,0.5-0.5,0.3-0.8c0-0.1,0-0.2,0.1-0.2c0.1,0,0.2,0,0.3,0.3c0.1,0.3,0.2,0.6,0.3,0.8
		c0.1,0.3,0.3,0.5,0.4,0.8c0.1,0.2,0,0.2,0,0.2c-0.1,0-0.1,0-0.3-0.1c-0.2-0.2-0.5-0.2-0.7-0.1l-2.1,0.9c-0.8,0.3-1.1,1.1-0.8,1.9
		c0.5,1.2,1.6,1.1,2.4,0.7l1.7-0.8c0.3-0.2,0.5-0.4,0.3-0.8c0-0.1,0-0.2,0.1-0.3c0.1,0,0.1,0,0.2,0.2c0.1,0.2,0.2,0.4,0.2,0.6
		c0.1,0.2,0.2,0.4,0.3,0.6c0.1,0.1,0,0.2,0,0.2c-0.1,0-0.2-0.1-0.3-0.2c-0.2-0.2-0.3-0.2-0.9,0.1l-1.4,0.6c-1.5,0.7-2.6,0.2-3.3-1.3
		c-0.5-1.2-0.3-2.2,0.9-2.7L67.9,22.3z"/>
	<path fill="#FFFFFF" d="M69.9,29.5c0.1-0.2,0.2-0.4,0.2-0.4c0,0,0-0.1-0.2,0l-2.6,0.6c-0.4,0.1-0.6,0.3-0.6,0.6
		c0,0.2,0,0.4-0.1,0.5c-0.1,0-0.2-0.1-0.2-0.3c-0.1-0.3-0.1-0.5-0.1-0.8c-0.1-0.2-0.2-0.5-0.2-0.7c0-0.1,0-0.2,0.1-0.2
		c0.1,0,0.2,0.1,0.3,0.1c0.3,0.3,0.5,0.4,0.9,0.3l2.7-0.6c0.3-0.1,0.6-0.3,0.7-0.5c0.1-0.3,0.1-0.4,0.2-0.4c0.1,0,0.1,0,0.1,0.1
		c0,0.2,0.1,0.4,0.1,0.7c0,0.2,0.1,0.4,0.2,0.6c0,0.2,0,0.2,0,0.3l-2.3,3.4C69,32.9,69,33,69,33c0,0.1,0.1,0,0.2,0l1.6-0.4
		c0.5-0.1,0.9-0.2,0.9-0.7c0-0.2,0-0.4,0.1-0.4c0.1,0,0.1,0.1,0.2,0.2c0.1,0.3,0.1,0.5,0.1,0.8c0.1,0.3,0.2,0.5,0.2,0.7
		c0,0.1,0,0.1-0.1,0.2c-0.1,0-0.2-0.1-0.2-0.1c-0.3-0.3-0.5-0.4-0.9-0.3l-3.5,0.8c-0.3,0.1-0.4,0.1-0.4,0c0-0.1,0.1-0.3,0.3-0.5
		L69.9,29.5z"/>
	<path fill="#FFFFFF" d="M68.3,36.5c-0.5,0-0.6,0.4-0.6,0.6c0,0.1,0,0.2-0.2,0.2c-0.1,0-0.1-0.2-0.1-0.4c0-0.2,0-0.5,0-0.8
		c0-0.3-0.1-0.6-0.1-0.9c0-0.1,0-0.2,0.1-0.3c0.1,0,0.2,0.1,0.2,0.2c0.1,0.3,0.4,0.3,0.6,0.3l3.3-0.2c0.5,0,0.6-0.3,0.6-0.6
		c0-0.1,0.1-0.2,0.2-0.2c0.1,0,0.1,0.2,0.1,0.4c0,0.3,0,0.6,0,0.9c0,0.3,0.1,0.6,0.1,0.9c0,0.1,0,0.2-0.1,0.2
		c-0.1,0-0.2-0.2-0.2-0.3c-0.1-0.3-0.4-0.3-0.6-0.3L68.3,36.5z"/>
	<path fill="#FFFFFF" d="M71.1,41.9c0.2,0.1,0.3,0.2,0.4,0.2c0.1,0,0.2,0,0.3-0.1c0.1-0.1,0.1-0.3,0.3-0.5c0.1-0.1,0.1-0.2,0.2-0.1
		c0.1,0,0.1,0.1,0.1,0.2c0,0.3-0.1,0.5-0.1,0.7c0,0.2,0,0.5,0,0.7c0,0.1,0,0.2-0.1,0.2c-0.1,0-0.1-0.2-0.2-0.3
		c-0.2-0.2-0.3-0.3-0.8-0.5l-3.5-1.9c-0.4-0.2-0.4-0.3-0.4-0.4c0-0.1,0.1-0.2,0.3-0.2l4.2-1.6c0.4-0.1,0.4-0.3,0.5-0.5
		c0.1-0.1,0.1-0.2,0.2-0.2c0.1,0,0.1,0.1,0.1,0.2c0,0.3-0.1,0.7-0.1,1c0,0.3,0,0.7,0,1c0,0.1,0,0.2-0.1,0.2c-0.1,0-0.1-0.1-0.2-0.2
		c0-0.2-0.2-0.3-0.3-0.3c-0.1,0-0.3,0.1-0.4,0.1l-2.3,0.9c-0.3,0.1-0.3,0.1-0.3,0.2c0,0,0.1,0.1,0.2,0.2L71.1,41.9z"/>
	<path fill="#FFFFFF" d="M70.7,44.4c0.4,0.1,0.9,0.2,1-0.1c0.1-0.2,0.2-0.3,0.3-0.3c0.1,0,0.1,0.1,0.1,0.3c-0.2,0.5-0.3,1.1-0.5,1.6
		c-0.1,0.5-0.2,1.1-0.3,1.7c0,0.2-0.1,0.3-0.2,0.3c-0.2,0-0.3-0.1-0.5-0.1c-0.2,0-0.3,0-0.5-0.1c-0.1,0-0.1-0.1-0.1-0.2
		c0-0.1,0.2-0.1,0.2-0.1c0.5,0.1,0.7-0.1,0.9-0.9l0.1-0.5c0-0.2,0-0.3-0.3-0.3l-1.2-0.3c-0.1,0-0.2,0.1-0.2,0.4
		c-0.1,0.4-0.1,0.8,0.2,0.9c0.2,0.1,0.2,0.2,0.2,0.2c0,0.1-0.1,0.1-0.2,0.1c-0.2-0.1-0.4-0.1-0.6-0.2c-0.2-0.1-0.4-0.1-0.6-0.1
		c-0.1,0-0.2,0-0.2-0.2c0-0.1,0.2-0.1,0.4-0.1c0.3-0.1,0.4-0.3,0.5-0.7c0.1-0.3,0-0.4-0.2-0.5l-1.2-0.3c-0.5-0.1-0.6-0.1-0.7,0.3
		c-0.2,0.7-0.1,1.2,0.1,1.5c0.2,0.3,0.4,0.4,0.4,0.5c0,0.1-0.1,0.1-0.2,0.1c-0.1,0-0.4-0.2-0.5-0.2c-0.3-0.2-0.5-0.6-0.5-0.9
		c0.1-0.5,0.3-0.9,0.4-1.4c0.1-0.5,0.2-1,0.3-1.4c0.1-0.2,0.1-0.3,0.2-0.3c0.1,0,0.1,0.2,0.2,0.3c0.1,0.3,0.2,0.3,0.6,0.4L70.7,44.4
		z"/>
	<path fill="#FFFFFF" d="M68,50.3c-0.1,0-0.2-0.1-0.4,0.3c-0.3,0.6-0.1,1,0.6,1.3c0.5,0.2,1.1,0.1,1.3-0.5c0.2-0.4,0.1-0.5-0.2-0.6
		L68,50.3z M69.6,49.7c0.4,0.2,0.6,0,0.8-0.3c0.1-0.1,0.1-0.1,0.2-0.1c0.1,0,0.1,0.1,0,0.2c-0.1,0.2-0.2,0.3-0.4,0.8
		c-0.2,0.4-0.3,0.9-0.5,1.2c-0.4,0.9-1,1.8-2.1,1.3c-0.5-0.2-0.6-0.5-0.6-0.9c0-0.2,0-0.4,0-0.4c-0.1,0-1.8,0.1-2.3,0.3
		c-0.1,0-0.2,0.1-0.2,0.1c0,0.1,0,0.2-0.1,0.2c0,0.1-0.1,0.1-0.2,0.1c-0.3-0.1,0-0.9,0.1-1.2c0.1-0.2,0.3-0.4,0.7-0.4l1.8-0.2
		c0.3,0,0.5-0.1,0.6-0.3c0.1-0.2,0.1-0.2,0-0.3l-1.1-0.5c-0.6-0.2-0.8-0.1-0.9,0.2c0,0.1-0.1,0.1-0.2,0.1c-0.1,0-0.1-0.1,0.1-0.4
		c0.1-0.3,0.3-0.5,0.4-0.8c0.1-0.3,0.2-0.6,0.3-0.8c0-0.1,0.1-0.2,0.2-0.1c0.1,0,0.1,0.2,0.1,0.3c0,0.3,0.2,0.5,0.4,0.6L69.6,49.7z"
		/>
	<path fill="#FFFFFF" d="M64.8,53.1c0.1,0,0.2,0,0.2,0.1c0,0,0.1,0.1,0,0.2c-0.1,0.1-0.3,0-0.4,0c-0.6-0.1-1.4,0.1-1.7,0.7
		c-0.3,0.4-0.2,1,0.2,1.2c1,0.6,2-2,3.7-0.9c0.6,0.4,0.9,1.3,0.4,2c-0.3,0.5-0.8,0.7-0.9,0.9c0,0.1,0,0.3-0.1,0.3
		c-0.1,0.1-0.1,0.1-0.2,0c-0.3-0.2-1-0.5-1-0.5c-0.1-0.1-0.1-0.1-0.1-0.2c0.1-0.1,0.2-0.1,0.4,0c0.5,0.1,1.3-0.1,1.6-0.6
		c0.2-0.4,0.2-0.8-0.1-1.1c-1-0.7-2,2-3.7,0.9c-0.6-0.4-1.1-1.3-0.5-2.3c0.3-0.4,0.6-0.7,0.9-1c0.1-0.1,0.1-0.1,0.2-0.1L64.8,53.1z"
		/>
	<path fill="#FFFFFF" d="M61.1,57.6c-0.4-0.3-0.7-0.1-0.8,0.1c-0.1,0.1-0.1,0.1-0.2,0c-0.1-0.1,0-0.2,0.2-0.4
		c0.1-0.2,0.4-0.4,0.6-0.6c0.2-0.2,0.3-0.5,0.5-0.7c0.1-0.1,0.2-0.2,0.2-0.1c0.1,0.1,0,0.2,0,0.3c-0.1,0.3,0.1,0.5,0.3,0.7l2.6,2.1
		c0.4,0.3,0.6,0.2,0.8,0c0.1-0.1,0.1-0.1,0.2,0c0.1,0.1,0,0.2-0.2,0.4c-0.2,0.2-0.4,0.4-0.6,0.6c-0.2,0.2-0.3,0.5-0.5,0.7
		c-0.1,0.1-0.1,0.2-0.2,0.1c-0.1-0.1,0-0.3,0-0.3c0.1-0.3-0.1-0.5-0.3-0.6L61.1,57.6z"/>
	<path fill="#FFFFFF" d="M61.4,62.4c0.2,0.2,0.3,0.1,0.6-0.1c0.5-0.5,0.7-0.7,0.3-1.4c0,0,0-0.1,0.1-0.1c0.1-0.1,0.1-0.1,0.2,0
		c0,0,0.1,0.1,0.2,0.2l0.5,0.6c0.1,0.1,0.1,0.2,0,0.3c-0.5,0.5-1.1,1-1.7,1.5c-0.5,0.5-1.1,1.1-1.6,1.6c-0.1,0.1-0.2,0.1-0.4,0
		l-0.6-0.5c0,0-0.1-0.1-0.1-0.1c0,0,0-0.1,0-0.1c0.1-0.1,0.1-0.1,0.1,0c0.6,0.4,0.9,0.2,1.4-0.2c0.3-0.3,0.3-0.4,0.2-0.6l-2.3-2.5
		c-0.4-0.4-0.8-0.1-1,0c-0.1,0-0.2,0.1-0.3,0c-0.1-0.1,0-0.1,0-0.2c0.3-0.3,0.7-0.6,1-0.9c0.3-0.3,0.6-0.7,0.9-0.9
		c0.1-0.1,0.1-0.1,0.2,0c0.1,0.1,0,0.2,0,0.3c-0.1,0.2-0.5,0.6-0.1,1L61.4,62.4z"/>
	<path fill="#FFFFFF" d="M55.1,66.8c0,0.2,0.1,0.3,0.1,0.4c0.1,0.2,0.4,0.1,0.7,0c0.1,0,0.2,0,0.2,0.1c0.1,0.1,0,0.1-0.1,0.2
		c-0.2,0.1-0.5,0.2-0.7,0.4c-0.2,0.1-0.4,0.3-0.6,0.5c-0.1,0-0.1,0.1-0.2,0c-0.1-0.1,0-0.1,0.1-0.3c0.1-0.2,0.2-0.4,0.1-0.9
		l-0.1-1.8c0-0.2,0-0.3-0.1-0.4l-0.6-1c-0.2-0.3-0.4-0.5-0.8-0.3c-0.2,0.1-0.3,0.2-0.4,0c-0.1-0.1,0.1-0.2,0.3-0.4
		c0.3-0.2,0.6-0.3,0.9-0.5c0.2-0.1,0.5-0.4,0.7-0.5c0.2-0.1,0.3-0.2,0.4-0.1c0.1,0.1,0,0.2-0.2,0.3c-0.3,0.3-0.2,0.5,0,0.8l0.5,0.8
		c0,0.1,0.1,0.1,0.2,0.1l2.1,1.1c0.5,0.2,0.7,0.3,0.9,0.2c0.2-0.1,0.3-0.1,0.4,0c0.1,0.1,0,0.2-0.2,0.2c-0.3,0.2-0.6,0.3-0.9,0.5
		c-0.3,0.2-0.5,0.4-0.8,0.6c-0.1,0.1-0.2,0.1-0.3,0c-0.1-0.1,0.1-0.2,0.2-0.3c0.1-0.1,0.1-0.2,0-0.2c-0.1-0.1-0.2-0.2-0.3-0.3
		l-1.2-0.7c-0.2-0.1-0.3-0.1-0.3-0.1c0,0,0,0.2,0,0.3L55.1,66.8z"/>
	<path fill="#FFFFFF" d="M27.4,68.4c-0.2,0-0.3,0-0.4,0c-0.1,0-0.2,0-0.3,0.1c-0.1,0-0.1,0.1-0.2,0.2c-0.1,0.1-0.2,0.2-0.3,0.3
		l-0.1,0c0-0.2,0-0.3,0-0.4c0-0.1,0-0.2-0.1-0.3c0-0.1-0.1-0.1-0.2-0.2c-0.1-0.1-0.2-0.2-0.3-0.3l0-0.1c0.2,0,0.3,0,0.4,0
		c0.1,0,0.2,0,0.3-0.1c0.1,0,0.1-0.1,0.2-0.2c0.1-0.1,0.2-0.2,0.3-0.3l0.1,0c0,0.2,0,0.3,0,0.4c0,0.1,0,0.2,0.1,0.3
		c0,0.1,0.1,0.1,0.2,0.2C27.2,68.1,27.3,68.2,27.4,68.4L27.4,68.4z"/>
	<path fill="#FFFFFF" d="M31.7,67.6c0-0.1-0.1-0.2-0.2-0.3c-0.2,0-0.3,0-0.4,0c-0.1,0-0.2,0-0.1-0.2c0-0.1,0.2-0.1,0.3-0.1
		c0.4,0,0.8,0,1.2-0.2c0.1,0,0.1-0.1,0.2-0.1c0.1,0,0.1,0.1,0.1,0.2l-0.8,4c-0.1,0.4,0.1,0.5,0.3,0.6c0.1,0.1,0.3,0.1,0.3,0.2
		c0,0.1-0.1,0.1-0.3,0.1c-0.3-0.1-0.6-0.2-0.9-0.2c-0.3-0.1-0.6-0.1-0.9-0.1c-0.2,0-0.2-0.1-0.2-0.2c0-0.1,0.2-0.1,0.4-0.1
		c0.2,0,0.4-0.1,0.5-0.4L31.7,67.6z"/>
	<path fill="#FFFFFF" d="M34.8,68.1c-0.1,0.7,1,1,1.2,1.1c0.4,0,0.6-0.3,0.6-0.7c0-0.6-0.4-1-1-1C35.3,67.4,34.9,67.6,34.8,68.1
		 M35.1,69.9c-0.1,0-0.1-0.1-0.2-0.1c-0.1,0-0.4,0.3-0.4,0.8c-0.1,0.7,0.3,1.3,1.1,1.3c0.4,0,1-0.2,1-0.7c0-0.4-0.1-0.6-0.4-0.8
		L35.1,69.9z M37.3,68.4c0,0.5-0.3,0.7-0.8,0.9c-0.1,0-0.2,0-0.2,0.1c0,0,0.1,0.1,0.1,0.1c0.5,0.3,0.9,0.8,0.9,1.5
		c-0.1,1.2-1,1.5-2,1.4c-0.8-0.1-1.6-0.5-1.6-1.5c0-0.5,0.3-0.9,0.8-1c0.1,0,0.1,0,0.1,0c0,0-0.1-0.1-0.1-0.1
		c-0.3-0.3-0.5-0.7-0.5-1.2c0.1-0.9,0.9-1.3,1.7-1.3C36.5,67.2,37.4,67.6,37.3,68.4"/>
	<path fill="#FFFFFF" d="M39.4,67.7c-0.5,0-0.6,0.4-0.8,0.4c-0.1,0-0.1,0-0.1-0.1c0-0.2,0.6-0.9,1.4-0.9c0.5,0,1.1,0.2,1.1,0.8
		c0,0.5-0.3,0.8-0.7,1.1c0,0,0,0.1,0,0.1c0,0,0,0,0.1,0c0.7,0,1.1,0.4,1.1,1.1c0.1,1.1-0.7,2-1.8,2c-0.6,0-1.3-0.3-1.3-0.5
		c0-0.1,0-0.1,0.1-0.1c0.2,0,0.3,0.4,1,0.3c0.7,0,1.1-0.7,1-1.3c0-0.5-0.3-0.9-0.8-0.9c-0.1,0-0.2,0.1-0.3,0.1c-0.1,0-0.1,0-0.1-0.1
		c0-0.1,0.2-0.2,0.3-0.3c0.4-0.2,0.6-0.6,0.6-1.1C40,68,39.8,67.7,39.4,67.7"/>
	<path fill="#FFFFFF" d="M43.7,69.6c-0.1,0-0.1,0-0.2,0c-0.1,0-0.3,0.4-0.2,0.8c0.1,0.7,0.6,1.2,1.4,1c0.4-0.1,0.9-0.4,0.8-1
		c-0.1-0.4-0.3-0.6-0.6-0.6L43.7,69.6z M42.9,67.8c0.1,0.7,1.3,0.7,1.4,0.7c0.4-0.1,0.5-0.5,0.4-0.8c-0.1-0.6-0.6-0.8-1.2-0.7
		C43.2,67.1,42.8,67.3,42.9,67.8 M45.4,67.5c0.1,0.5-0.1,0.8-0.5,1c-0.1,0-0.2,0.1-0.1,0.1c0,0,0.1,0,0.2,0.1
		c0.6,0.2,1.1,0.6,1.2,1.2c0.2,1.1-0.6,1.7-1.6,1.9c-0.8,0.2-1.7-0.1-1.9-1c-0.1-0.5,0.1-0.9,0.5-1.2c0.1,0,0.1-0.1,0.1-0.1
		c0,0-0.1,0-0.1-0.1c-0.4-0.2-0.7-0.5-0.7-1c-0.2-0.9,0.5-1.5,1.3-1.7C44.3,66.6,45.2,66.7,45.4,67.5"/>
	<path fill="#FFFFFF" d="M51,67.4c-0.1,0.1-0.2,0.2-0.3,0.3c-0.1,0.1-0.1,0.2-0.2,0.2c0,0.1-0.1,0.2-0.1,0.3c0,0.1,0,0.3,0,0.4
		l-0.1,0c-0.1-0.1-0.2-0.2-0.3-0.3c-0.1-0.1-0.2-0.1-0.2-0.1c-0.1,0-0.2-0.1-0.3-0.1c-0.1,0-0.3,0-0.4,0l0-0.1
		c0.1-0.1,0.2-0.2,0.3-0.3c0.1-0.1,0.1-0.2,0.2-0.2c0-0.1,0.1-0.2,0.1-0.3c0-0.1,0-0.3,0-0.4l0.1,0c0.1,0.1,0.2,0.2,0.3,0.3
		c0.1,0.1,0.2,0.1,0.2,0.2c0.1,0,0.2,0.1,0.3,0.1C50.7,67.4,50.8,67.4,51,67.4L51,67.4z"/>
	<path fill="#FEBE10" d="M65.5,38c0,15.2-12.3,27.5-27.5,27.5c-15.2,0-27.5-12.3-27.5-27.5c0-15.2,12.3-27.5,27.5-27.5
		C53.2,10.5,65.5,22.8,65.5,38"/>
	<g>
		<defs>
			<path id="SVGID_1_" d="M10.5,38c0,15.2,12.3,27.5,27.5,27.5c15.2,0,27.5-12.3,27.5-27.5c0-15.2-12.3-27.5-27.5-27.5
				C22.8,10.5,10.5,22.8,10.5,38"/>
		</defs>
		<clipPath id="SVGID_2_">
			<use xlink:href="#SVGID_1_"  overflow="visible"/>
		</clipPath>
		<path clip-path="url(#SVGID_2_)" d="M32.2,35.9L32,53c0,0,0,0.1,0.1,0.2c0.1,0.1,0.5,0.2,1.8,0.2c1.3,0,1.7-0.2,1.8-0.2
			c0.1-0.1,0.1-0.2,0.1-0.2l-0.1-17.1c-0.2-0.1-0.7-0.3-1.7-0.3C32.9,35.6,32.4,35.8,32.2,35.9"/>
		<path clip-path="url(#SVGID_2_)" d="M33.9,30.5c-2.1,0-2.6,0.7-2.6,0.7l0,0.2c0,0,0.4,0.1,0.6,0.5c0.2,0.6,0.3,2.7,0.3,2.7l0,0.2
			c0.3-0.2,0.8-0.3,1.7-0.3c0.9,0,1.4,0.1,1.7,0.3l0-0.2c0,0,0-1.9,0.3-2.7c0.2-0.4,0.5-0.5,0.5-0.5l0-0.2
			C36.6,31.1,36,30.5,33.9,30.5"/>
		<path clip-path="url(#SVGID_2_)" d="M40.2,35.9L40,53c0,0,0,0.1,0.1,0.2c0.1,0.1,0.5,0.2,1.8,0.2c1.3,0,1.7-0.2,1.8-0.2
			c0.1-0.1,0.1-0.2,0.1-0.2l-0.2-17.1c-0.2-0.1-0.6-0.4-1.7-0.4C40.8,35.6,40.4,35.8,40.2,35.9"/>
		<path clip-path="url(#SVGID_2_)" d="M44.5,31.2c0,0-0.5-0.7-2.6-0.7c-2.1,0-2.6,0.6-2.6,0.6l0,0.2c0,0,0.3,0.1,0.5,0.5
			c0.4,0.8,0.3,2.7,0.3,2.7l0,0.2c0.3-0.1,0.8-0.3,1.7-0.3c0.9,0,1.4,0.2,1.7,0.3l0-0.2c0,0,0.1-2.2,0.3-2.7
			c0.2-0.4,0.6-0.5,0.6-0.5L44.5,31.2z"/>
		<path clip-path="url(#SVGID_2_)" d="M56.3,52.8h-4c-0.1,0-0.1-0.1-0.1-0.1l-0.6-19.8c0,0,0-0.1,0.1-0.1h2.7c0.1,0,0.1,0.1,0.1,0.1
			l1.9,19.8C56.4,52.6,56.4,52.8,56.3,52.8 M55.1,32.1c0,0,0-0.1-0.1-0.1h-3.9C51,32,51,32.1,51,32.1l0.6,21.4c0,0,0,0.2,0.1,0.2
			h5.5c0.2,0,0.2-0.2,0.2-0.2L55.1,32.1z"/>
		<path clip-path="url(#SVGID_2_)" d="M23.8,52.6c0,0,0,0.1-0.1,0.1h-4c-0.2,0-0.1-0.2-0.1-0.2l1.9-19.8c0,0,0-0.1,0.1-0.1h2.7
			c0.1,0,0.1,0.1,0.1,0.1L23.8,52.6z M24.4,53.5L25,32.1c0,0,0-0.1-0.1-0.1H21c-0.1,0-0.1,0.1-0.1,0.1l-2.2,21.4c0,0,0,0.2,0.2,0.2
			h5.5C24.4,53.7,24.4,53.5,24.4,53.5"/>
		<path clip-path="url(#SVGID_2_)" d="M57.3,28.9c0,0-0.5,0.3-0.7,0.6c-0.2,0.3-0.2,0.8-0.2,0.8h-7c0,0,0-0.4-0.2-0.8
			c-0.2-0.4-0.6-0.6-0.6-0.6v-0.2c0,0,0-0.1,0.2-0.1h1.6c0.5,0.7,1.3,1.2,2.6,1.2c1.3,0,2.2-0.5,2.6-1.2h1.5c0.1,0,0.1,0.1,0.1,0.1
			V28.9z M46.4,27.5H29.6v-0.9h16.8V27.5z M33.3,23.5c0,0,0.9,0.3,1.8,0.3c1.1,0,1.4-0.3,1.7-0.1c0.2,0.2,0,0.4,0,0.7
			c0,0.2,0.2,0.5,0.5,0.4c0.2,0,0.3-0.1,0.3-0.2c-0.1-0.1-0.2-0.3-0.2-0.5c0-0.3,0.3-0.6,0.6-0.6c0.3,0,0.6,0.3,0.6,0.6
			c0,0.2-0.1,0.4-0.2,0.5c0.1,0.1,0.2,0.2,0.3,0.2c0.3,0,0.5-0.2,0.5-0.4c0-0.3-0.2-0.6,0-0.7c0.3-0.2,0.6,0,1.7,0.1
			c0.9,0,1.7-0.3,1.8-0.3c0,0-0.3,1.2-2,1.6c-1.3,0.3-2.6,0.3-2.6,0.3h0c0,0-1.2,0-2.6-0.3C33.6,24.7,33.2,23.5,33.3,23.5
			 M27.3,28.9c0,0-0.4,0.3-0.6,0.6c-0.2,0.4-0.2,0.8-0.2,0.8h-7c0,0,0-0.4-0.2-0.8c-0.2-0.3-0.7-0.6-0.7-0.6v-0.2c0,0,0-0.1,0.1-0.1
			h1.5c0.5,0.7,1.3,1.2,2.6,1.2c1.3,0,2.2-0.5,2.6-1.2h1.6c0.1,0,0.2,0.1,0.2,0.1V28.9z M58.6,26.5l-12.2,0l0.1-0.9l11.7,0
			c0,0,0-0.5,0-0.7c0-0.7,0.4-1.2,0.4-1.2l1.5-1.9v-0.6c0-0.1,0-0.1-0.1-0.1H45.9c-0.1,0-0.1,0-0.1,0.1v1.1H30.2v-1.1
			c0,0,0-0.1-0.1-0.1H15.9c-0.1,0-0.1,0-0.1,0.1v0.6l1.5,1.9c0,0,0.4,0.5,0.4,1.2c0,0.1,0,0.7,0,0.7l11.7,0l0.1,0.9l-12.2,0
			l-3.9,29.1h3.3l2.8-24.7h6.9l-0.3,24.7h2.7l0.8-1.2l0-25h16.8l0,25l0.8,1.2h2.7l-0.3-24.7h6.9l2.8,24.7h3.3L58.6,26.5z"/>
	</g>
	<path d="M31.2,18.4c0,1.1,0.7,0.8,0.7,1c0,0,0,0.1-0.2,0.1c-0.2,0-0.4,0-0.7,0c-0.3,0-0.6,0-0.7,0c-0.1,0-0.1-0.1-0.1-0.1
		c0-0.2,0.6-0.1,0.6-0.8l0.1-2.7c0-1.1-0.7-0.8-0.7-1.1c0,0,0-0.1,0.1-0.1c0.1,0,0.2,0,0.4,0c0.2,0,0.4,0,0.6,0c0.1,0,0.1,0,0.2,0.2
		l1.5,3.2c0,0.1,0,0.1,0.1,0.1c0,0,0.1-0.1,0.1-0.1l1.6-3.2c0,0,0-0.1,0.2-0.1c0.2,0,0.3,0,0.4,0c0.1,0,0.2,0,0.4,0
		c0.2,0,0.2,0,0.2,0.1c0,0.2-0.7,0-0.6,0.8l0.1,3c0,0.9,0.7,0.6,0.7,0.8c0,0.1-0.1,0.1-0.3,0.1c-0.2,0-0.4,0-0.6,0
		c-0.4,0-0.6,0-0.8,0c-0.1,0-0.3,0-0.3-0.1c0-0.2,0.5,0,0.5-0.8l-0.1-2c0-0.2,0-0.3-0.1-0.3c0,0-0.1,0.1-0.2,0.4L33,19.3
		c0,0.1-0.1,0.2-0.2,0.2c-0.1,0-0.1-0.1-0.2-0.2l-1.3-2.9c0,0,0-0.1-0.1-0.1c0,0,0,0.1,0,0.2L31.2,18.4z"/>
	<path d="M40.4,16.2c0,0.1,0,0.2-0.1,0.2c-0.1,0-0.2-0.1-0.2-0.2c-0.3-0.6-0.9-1.2-1.7-1.2c-1,0-1.5,0.9-1.5,1.8
		c0,0.9,0.5,2.3,1.8,2.3c1,0,1.5-0.9,1.7-0.9c0,0,0.1,0,0.1,0.1c0,0.3-0.7,1.3-2.1,1.3c-2,0-2.3-1.7-2.3-2.2c0-1.1,0.7-2.6,2.4-2.6
		c0.8,0,1.3,0.4,1.5,0.4c0.1,0,0.1-0.2,0.2-0.2c0,0,0.1,0,0.1,0L40.4,16.2z"/>
	<path d="M43.4,19.4c-0.1,0.2-0.1,0.2-0.2,0.2c-0.1,0-0.1-0.1-0.3-0.3l-1.7-3.9c-0.1-0.3-0.2-0.3-0.5-0.4c0,0-0.1,0-0.1-0.1
		c0-0.2,0.2-0.1,0.3-0.1c0.2,0,0.4,0,0.7,0c0.4,0,0.6,0,0.7,0c0.2,0,0.2,0,0.2,0.1c0,0.2-0.4,0.1-0.4,0.4c0,0.2,0.1,0.5,0.3,0.9
		l0.9,2.2c0,0,0.1,0.1,0.1,0.1c0,0,0.1-0.1,0.1-0.1l0.9-2c0.2-0.4,0.2-0.7,0.2-0.8c0-0.6-0.7-0.4-0.7-0.6c0-0.1,0.2-0.1,0.3-0.1
		c0.2,0,0.4,0,0.6,0c0.2,0,0.4,0,0.6,0c0.1,0,0.2,0,0.2,0.1c0,0.2-0.3,0.1-0.5,0.5L43.4,19.4z"/>
	<path d="M34,59c0,0.2,0.3,0.2,0.5,0.2c1.1,0,1.1-0.4,1.1-0.8c0-0.7-0.4-1.2-1.1-1.2c-0.3,0-0.5,0-0.5,0.4V59z M33.1,57.8
		c0-0.8-0.8-0.5-0.8-0.8c0-0.1,0.1-0.1,0.2-0.1c0.3,0,0.4,0,0.8,0c0.5,0,0.9,0,1.4,0c1.5,0,1.7,1,1.7,1.3c0,0.4-0.2,0.7-0.4,0.9
		c-0.2,0.2-0.4,0.2-0.4,0.3c0,0,0.6,1,1.1,1.9c0.1,0.1,0.2,0.1,0.3,0.1c0.1,0,0.1,0,0.2,0c0.1,0,0.1,0,0.1,0.1
		c0,0.2-0.5,0.4-0.7,0.4c-0.5,0-0.8-0.4-1-0.8l-0.6-1.1c-0.2-0.3-0.3-0.4-0.6-0.4c-0.4,0-0.3,0-0.3,0.3V61c0,0.7,0.7,0.5,0.7,0.7
		c0,0.1-0.1,0.1-0.2,0.1c-0.1,0-0.3,0-0.6,0c-0.4,0-0.7,0-1.1,0c-0.1,0-0.2,0-0.2-0.1c0-0.2,0.6,0,0.6-0.9V57.8z"/>
	<path d="M38.8,60.9c0,0.9,0.7,0.6,0.7,0.8c0,0.1-0.1,0.1-0.2,0.1c-0.5,0-0.8,0-0.9,0c-0.3,0-0.8,0-0.9,0c0,0-0.1,0-0.1-0.1
		c0-0.2,0.6,0,0.6-0.9v-3.1c0-0.7-0.7-0.5-0.7-0.7c0,0,0-0.1,0.2-0.1c0,0,0.4,0,1,0c0.1,0,0.6,0,1.1,0c0.9,0,1.7,0.3,1.7,1.3
		c0,0.9-0.6,1.4-1.5,1.4c-0.7,0-0.7-0.2-0.7-0.2c0,0,0-0.1,0.1-0.1c0.1,0,0.2,0,0.3,0c0.8,0,0.9-0.8,0.9-1c0-0.2-0.1-1.2-1.1-1.2
		c-0.3,0-0.4,0.1-0.4,0.5V60.9z"/>
	<path d="M43.4,60.9c0,0.9,0.8,0.5,0.8,0.8c0,0.1-0.1,0.1-0.2,0.1c-0.3,0-0.5,0-1.1,0c-0.3,0-0.6,0-0.8,0c-0.1,0-0.1,0-0.1-0.1
		c0-0.2,0.5-0.1,0.5-0.7v-3.3c0-0.6-0.8-0.4-0.8-0.7c0-0.1,0.2-0.1,0.2-0.1c0.3,0,0.5,0,0.8,0c0.2,0,0.5,0,0.9,0
		c0.2,0,0.2,0,0.2,0.1c0,0.2-0.5,0-0.5,0.6V60.9z"/>
	<path d="M46.8,16.8l6.5,0.3l-6.5,0.3c0,0-1.1,0-1.1-0.3C45.7,16.8,46.8,16.8,46.8,16.8"/>
	<path d="M28.8,17.5l-6.5-0.3l6.5-0.3c0,0,1.1,0,1.1,0.3C29.9,17.5,28.8,17.5,28.8,17.5"/>
	<path d="M45.6,59l6.5,0.3l-6.5,0.3c0,0-1.1,0-1.1-0.3C44.5,59,45.6,59,45.6,59"/>
	<path d="M30.6,59.7l-6.5-0.3l6.5-0.3c0,0,1.1,0,1.1,0.3C31.7,59.7,30.6,59.7,30.6,59.7"/>
</g>
</svg>
